<?xml version="1.0" encoding="utf-8"?>
<!-- Generator: Adobe Illustrator 27.4.1, SVG Export Plug-In . SVG Version: 6.00 Build 0)  -->
<svg version="1.1" id="Layer_1" xmlns="http://www.w3.org/2000/svg" xmlns:xlink="http://www.w3.org/1999/xlink" x="0px" y="0px"
	 viewBox="0 0 72 72" style="enable-background:new 0 0 72 72;" xml:space="preserve">
<style type="text/css">
	.st0{fill:#8A5D3B;}
	.st1{fill:#3B2314;}
	.st2{fill:#FF0000;}
	.st3{fill:#2E3191;}
	.st4{fill:#EC1C24;}
	.st5{fill:#006838;}
	.st6{fill:#231F20;}
</style>
<g>
	<g>
		<path class="st2" d="M24.51,27.34c0-0.4,0-0.75-0.01-1.05c-0.01-0.31-0.02-0.62-0.04-0.93c0.08,0.01,0.17,0.02,0.26,0.03
			c0.1,0.01,0.2,0.01,0.32,0.01c0.16,0,0.33-0.01,0.53-0.02c0.2-0.01,0.45-0.02,0.77-0.02c0.41,0,0.78,0.04,1.12,0.11
			c0.34,0.07,0.63,0.2,0.87,0.38c0.24,0.18,0.43,0.41,0.56,0.71c0.13,0.3,0.2,0.67,0.2,1.13c0,0.4-0.07,0.75-0.2,1.07
			c-0.13,0.32-0.31,0.59-0.54,0.82c-0.23,0.23-0.49,0.4-0.79,0.52c-0.3,0.12-0.62,0.18-0.95,0.18c-0.36,0-0.66,0-0.92-0.01
			c-0.25,0-0.47-0.01-0.66-0.01c-0.12,0-0.23,0-0.32,0s-0.18,0-0.26,0.01c0.02-0.3,0.03-0.6,0.04-0.9c0.01-0.31,0.01-0.66,0.01-1.05
			V27.34z M25.57,28.84v0.43c0,0.14,0,0.26,0,0.38c0,0.11,0,0.19,0,0.22c0.07,0,0.16,0.01,0.26,0.01c0.1,0,0.22,0.01,0.37,0.01
			c0.54,0,0.97-0.18,1.28-0.55c0.31-0.37,0.47-0.92,0.47-1.67c0-0.3-0.04-0.56-0.12-0.79c-0.08-0.23-0.19-0.43-0.33-0.6
			s-0.31-0.29-0.51-0.38c-0.2-0.09-0.42-0.13-0.67-0.13c-0.17,0-0.31,0-0.42,0.01s-0.22,0.02-0.33,0.03c0,0.03,0,0.11,0,0.22
			c0,0.11,0,0.24,0,0.39v0.43v0.36v1.27V28.84z"/>
		<path class="st2" d="M35.28,30.28c-0.11-0.01-0.22-0.01-0.33-0.01c-0.1,0-0.2,0-0.3,0s-0.2,0-0.3,0c-0.1,0-0.2,0-0.3,0.01
			c-0.08-0.23-0.15-0.47-0.24-0.72c-0.08-0.24-0.17-0.49-0.26-0.73c-0.15,0-0.3-0.01-0.46-0.01c-0.15,0-0.3,0-0.46,0
			c-0.12,0-0.25,0-0.37,0c-0.12,0-0.25,0.01-0.37,0.01c-0.1,0.24-0.18,0.49-0.26,0.73c-0.08,0.24-0.16,0.48-0.22,0.72
			c-0.06-0.01-0.11-0.01-0.17-0.01s-0.11,0-0.17,0s-0.11,0-0.17,0s-0.12,0-0.19,0.01c0.06-0.12,0.13-0.3,0.23-0.51
			c0.1-0.22,0.2-0.47,0.31-0.74c0.11-0.28,0.24-0.57,0.37-0.89c0.13-0.32,0.26-0.64,0.39-0.96c0.13-0.32,0.26-0.64,0.39-0.96
			c0.13-0.31,0.24-0.61,0.35-0.88c0.05,0.01,0.09,0.02,0.14,0.03c0.04,0.01,0.09,0.01,0.14,0.01c0.05,0,0.09,0,0.14-0.01
			c0.04-0.01,0.09-0.02,0.14-0.03c0.15,0.41,0.32,0.84,0.49,1.3c0.17,0.46,0.35,0.92,0.53,1.36c0.18,0.45,0.35,0.87,0.51,1.27
			S35.14,30,35.28,30.28z M32.75,26.71c-0.12,0.29-0.24,0.57-0.35,0.85c-0.11,0.28-0.22,0.56-0.32,0.85h1.31
			c-0.1-0.29-0.21-0.58-0.31-0.85C32.97,27.28,32.87,26.99,32.75,26.71z"/>
		<path class="st2" d="M37.66,26.79c0-0.33,0-0.61-0.01-0.83c-0.01-0.22-0.02-0.42-0.02-0.59c0.13,0.02,0.24,0.04,0.32,0.04
			c0.08,0,0.19-0.01,0.32-0.04c0.52,0.58,1.03,1.14,1.54,1.7c0.51,0.56,1.03,1.13,1.56,1.7v-0.62v-0.69c0-0.23,0-0.46,0-0.69
			c0-0.23,0-0.44-0.01-0.63c0-0.19-0.01-0.36-0.01-0.49c-0.01-0.14-0.02-0.23-0.03-0.28c0.13,0.02,0.24,0.04,0.32,0.04
			s0.19-0.01,0.32-0.04c-0.02,0.43-0.04,0.83-0.06,1.18c-0.01,0.35-0.03,0.68-0.04,0.99c-0.01,0.31-0.02,0.62-0.02,0.92
			c0,0.3,0,0.63,0,0.97v0.86c-0.1-0.01-0.19-0.01-0.29-0.01c-0.1,0-0.2,0-0.28,0.01c-0.98-1.14-2.02-2.3-3.12-3.45
			c0,0.14-0.01,0.28-0.01,0.41c0,0.14,0,0.28,0,0.42v0.83c0,0.29,0,0.53,0,0.73s0.01,0.37,0.01,0.51c0,0.14,0.01,0.25,0.01,0.34
			c0,0.09,0.01,0.16,0.01,0.21c-0.06-0.01-0.11-0.01-0.17-0.01c-0.06,0-0.11,0-0.16,0c-0.11,0-0.22,0-0.33,0.01
			c0.01-0.04,0.02-0.17,0.04-0.41c0.01-0.23,0.03-0.52,0.05-0.85c0.02-0.34,0.03-0.7,0.04-1.09C37.65,27.53,37.66,27.15,37.66,26.79
			z"/>
		<path class="st2" d="M43.93,26.3c0.08-0.31,0.16-0.55,0.22-0.72c0.07-0.16,0.13-0.27,0.2-0.31c0.07-0.05,0.15-0.07,0.24-0.07
			c0.06,0,0.12,0.01,0.18,0.03c0.06,0.02,0.11,0.05,0.16,0.08s0.09,0.08,0.12,0.14c0.03,0.06,0.05,0.12,0.05,0.19
			c0,0.03,0,0.06-0.01,0.09c-0.01,0.03-0.03,0.08-0.06,0.13C45,25.92,44.96,26,44.9,26.09c-0.05,0.09-0.13,0.2-0.23,0.34
			c-0.1,0.14-0.22,0.31-0.36,0.5c-0.14,0.2-0.31,0.44-0.51,0.71l-0.18-0.07C43.75,27.04,43.85,26.62,43.93,26.3z"/>
		<path class="st2" d="M47.67,25.71c-0.22,0-0.4,0.06-0.54,0.19c-0.14,0.13-0.21,0.28-0.21,0.45c0,0.18,0.05,0.32,0.16,0.43
			c0.11,0.11,0.24,0.21,0.4,0.3c0.16,0.09,0.34,0.18,0.52,0.26c0.19,0.08,0.36,0.19,0.52,0.31c0.16,0.12,0.3,0.27,0.4,0.44
			c0.11,0.17,0.16,0.4,0.16,0.67c0,0.24-0.05,0.46-0.14,0.65c-0.09,0.2-0.22,0.37-0.39,0.51c-0.17,0.14-0.37,0.25-0.6,0.32
			c-0.23,0.07-0.49,0.11-0.78,0.11c-0.26,0-0.49-0.03-0.69-0.08s-0.36-0.12-0.46-0.2c0.05-0.17,0.09-0.32,0.12-0.46
			c0.03-0.14,0.06-0.29,0.09-0.45h0.14c0.02,0.1,0.05,0.2,0.11,0.3c0.05,0.09,0.12,0.18,0.2,0.25c0.08,0.07,0.18,0.13,0.29,0.17
			c0.11,0.04,0.24,0.06,0.39,0.06c0.29,0,0.5-0.07,0.63-0.21s0.2-0.31,0.2-0.51c0-0.18-0.05-0.33-0.16-0.44
			c-0.1-0.11-0.24-0.22-0.39-0.3c-0.16-0.09-0.33-0.17-0.51-0.26c-0.19-0.08-0.36-0.18-0.51-0.3c-0.16-0.12-0.29-0.27-0.39-0.44
			c-0.1-0.17-0.16-0.4-0.16-0.67c0-0.25,0.04-0.47,0.13-0.66c0.09-0.19,0.21-0.35,0.35-0.48c0.15-0.13,0.32-0.23,0.51-0.29
			c0.19-0.07,0.4-0.1,0.61-0.1c0.26,0,0.48,0.03,0.68,0.09c0.19,0.06,0.36,0.15,0.5,0.26c-0.04,0.11-0.08,0.22-0.11,0.32
			c-0.03,0.1-0.07,0.23-0.12,0.39h-0.11C48.39,25.92,48.1,25.71,47.67,25.71z"/>
		<path class="st2" d="M19.66,34.97c0-0.4,0-0.75-0.01-1.05c-0.01-0.31-0.02-0.62-0.04-0.93c0.08,0.01,0.17,0.02,0.26,0.03
			c0.1,0.01,0.2,0.01,0.32,0.01c0.21,0,0.42-0.01,0.64-0.02c0.22-0.01,0.44-0.02,0.64-0.02c0.21,0,0.41,0.02,0.59,0.06
			c0.18,0.04,0.33,0.11,0.46,0.2c0.13,0.09,0.23,0.2,0.3,0.34c0.07,0.14,0.1,0.31,0.1,0.5c0,0.2-0.04,0.36-0.12,0.5
			c-0.08,0.14-0.18,0.26-0.3,0.35c-0.12,0.09-0.24,0.17-0.38,0.22c-0.14,0.05-0.26,0.09-0.37,0.11v0.01c0.11,0,0.24,0.03,0.39,0.08
			c0.15,0.05,0.29,0.12,0.42,0.21c0.13,0.1,0.25,0.22,0.34,0.37s0.14,0.33,0.14,0.55c0,0.26-0.05,0.48-0.14,0.66
			c-0.09,0.18-0.22,0.33-0.37,0.44c-0.15,0.11-0.33,0.19-0.53,0.24c-0.2,0.05-0.41,0.07-0.62,0.07c-0.19,0-0.37,0-0.53-0.01
			c-0.16,0-0.34-0.01-0.52-0.01c-0.13,0-0.26,0-0.4,0c-0.14,0-0.24,0-0.33,0.01c0.02-0.3,0.03-0.6,0.04-0.9
			c0.01-0.31,0.01-0.66,0.01-1.05V34.97z M21.86,34.24c0-0.11-0.01-0.22-0.04-0.33c-0.03-0.1-0.07-0.19-0.13-0.26
			c-0.06-0.07-0.14-0.13-0.24-0.18c-0.1-0.05-0.21-0.07-0.36-0.07c-0.1,0-0.18,0-0.22,0c-0.04,0-0.08,0.01-0.13,0.02
			c-0.01,0.18-0.02,0.36-0.02,0.54s-0.01,0.33-0.01,0.46c0,0.13,0,0.25,0,0.37c0,0.12,0,0.24,0,0.36h0.32c0.1,0,0.2-0.02,0.3-0.06
			c0.1-0.04,0.18-0.09,0.26-0.17c0.08-0.07,0.14-0.17,0.19-0.28C21.84,34.52,21.86,34.39,21.86,34.24z M21.91,36.54
			c0-0.33-0.08-0.58-0.23-0.75c-0.15-0.16-0.37-0.25-0.65-0.25c-0.07,0-0.12,0-0.17,0c-0.05,0-0.09,0-0.14,0c0,0.1,0,0.2,0,0.31
			c0,0.11,0,0.23,0,0.38c0,0.11,0,0.23,0,0.35c0,0.12,0,0.24,0,0.35s0,0.22,0,0.31c0,0.1,0,0.17,0,0.24c0.07,0,0.13,0.01,0.19,0.01
			c0.06,0,0.13,0,0.21,0c0.1,0,0.2-0.02,0.3-0.06c0.1-0.04,0.18-0.11,0.25-0.19c0.07-0.08,0.13-0.18,0.17-0.3
			C21.89,36.84,21.91,36.7,21.91,36.54z"/>
		<path class="st2" d="M25.36,35.46c0-0.35,0.07-0.68,0.2-0.99c0.13-0.31,0.32-0.58,0.55-0.82c0.24-0.23,0.53-0.42,0.87-0.55
			c0.34-0.13,0.72-0.2,1.13-0.2c0.38,0,0.74,0.05,1.07,0.16c0.33,0.1,0.61,0.26,0.86,0.47c0.24,0.21,0.43,0.48,0.58,0.8
			c0.14,0.32,0.21,0.7,0.21,1.13c0,0.36-0.07,0.69-0.2,1c-0.14,0.31-0.32,0.58-0.56,0.81c-0.24,0.23-0.53,0.41-0.86,0.54
			c-0.33,0.13-0.7,0.19-1.1,0.19c-0.38,0-0.73-0.05-1.06-0.14c-0.33-0.09-0.62-0.24-0.87-0.45c-0.25-0.21-0.44-0.47-0.58-0.79
			C25.43,36.29,25.36,35.91,25.36,35.46z M29.64,35.3c0-0.31-0.04-0.59-0.11-0.83c-0.08-0.25-0.18-0.45-0.32-0.63
			c-0.14-0.17-0.3-0.3-0.49-0.4c-0.19-0.09-0.4-0.14-0.63-0.14c-0.24,0-0.46,0.06-0.65,0.18c-0.19,0.12-0.36,0.28-0.49,0.48
			c-0.13,0.2-0.23,0.44-0.3,0.7c-0.07,0.27-0.1,0.56-0.1,0.86c0,0.38,0.04,0.7,0.12,0.97c0.08,0.26,0.19,0.47,0.33,0.63
			c0.14,0.16,0.3,0.28,0.48,0.35c0.18,0.07,0.37,0.11,0.57,0.11c0.21,0,0.42-0.05,0.61-0.14c0.2-0.09,0.37-0.23,0.51-0.41
			c0.15-0.19,0.26-0.42,0.35-0.71C29.6,36.03,29.64,35.69,29.64,35.3z"/>
		<path class="st2" d="M33.48,34.41c0-0.33,0-0.61-0.01-0.83c-0.01-0.22-0.02-0.42-0.02-0.59c0.13,0.02,0.24,0.04,0.32,0.04
			c0.08,0,0.19-0.01,0.32-0.04c0.52,0.58,1.03,1.14,1.54,1.7c0.51,0.56,1.03,1.13,1.56,1.7v-0.62v-0.69c0-0.23,0-0.46,0-0.69
			s0-0.44-0.01-0.63c0-0.19-0.01-0.36-0.01-0.49c-0.01-0.14-0.02-0.23-0.02-0.28c0.13,0.02,0.24,0.04,0.32,0.04
			c0.08,0,0.19-0.01,0.32-0.04c-0.02,0.43-0.04,0.83-0.06,1.18c-0.01,0.35-0.03,0.68-0.04,0.99c-0.01,0.31-0.02,0.62-0.02,0.92
			c0,0.3,0,0.63,0,0.97v0.86c-0.1-0.01-0.19-0.01-0.29-0.01c-0.1,0-0.2,0-0.28,0.01c-0.98-1.14-2.02-2.3-3.12-3.45
			c0,0.14-0.01,0.28-0.01,0.41c0,0.14,0,0.28,0,0.42v0.83c0,0.29,0,0.53,0,0.73c0,0.2,0.01,0.37,0.01,0.51
			c0,0.14,0.01,0.25,0.01,0.34c0,0.09,0.01,0.16,0.01,0.21c-0.06-0.01-0.11-0.01-0.17-0.01c-0.06,0-0.11,0-0.16,0
			c-0.11,0-0.22,0-0.33,0.01c0.01-0.04,0.02-0.17,0.04-0.41c0.01-0.23,0.03-0.52,0.05-0.85c0.02-0.34,0.03-0.7,0.04-1.09
			C33.47,35.15,33.48,34.78,33.48,34.41z"/>
		<path class="st2" d="M41.94,33.34c-0.22,0-0.4,0.06-0.54,0.19c-0.14,0.13-0.21,0.28-0.21,0.45c0,0.18,0.05,0.32,0.16,0.43
			c0.11,0.11,0.24,0.21,0.4,0.3c0.16,0.09,0.34,0.18,0.52,0.26c0.19,0.08,0.36,0.19,0.52,0.31c0.16,0.12,0.3,0.27,0.4,0.44
			c0.11,0.17,0.16,0.4,0.16,0.67c0,0.24-0.05,0.46-0.14,0.65c-0.09,0.2-0.22,0.37-0.39,0.51c-0.17,0.14-0.37,0.25-0.6,0.32
			C42.02,37.96,41.76,38,41.47,38c-0.26,0-0.49-0.03-0.69-0.08c-0.2-0.05-0.36-0.12-0.46-0.2c0.05-0.17,0.09-0.32,0.12-0.46
			c0.03-0.14,0.06-0.29,0.09-0.45h0.14c0.02,0.1,0.05,0.2,0.11,0.3c0.05,0.09,0.12,0.18,0.2,0.25c0.08,0.07,0.18,0.13,0.29,0.17
			c0.11,0.04,0.24,0.06,0.39,0.06c0.29,0,0.5-0.07,0.63-0.21c0.14-0.14,0.2-0.31,0.2-0.51c0-0.18-0.05-0.33-0.16-0.44
			c-0.1-0.11-0.24-0.22-0.39-0.3c-0.16-0.09-0.33-0.17-0.51-0.26c-0.19-0.08-0.36-0.18-0.51-0.3c-0.16-0.12-0.29-0.27-0.39-0.44
			c-0.1-0.17-0.16-0.4-0.16-0.67c0-0.25,0.04-0.47,0.13-0.66c0.09-0.19,0.21-0.35,0.35-0.48c0.15-0.13,0.32-0.23,0.51-0.29
			c0.19-0.07,0.4-0.1,0.61-0.1c0.26,0,0.48,0.03,0.68,0.09c0.19,0.06,0.36,0.15,0.5,0.26c-0.04,0.11-0.08,0.22-0.11,0.32
			c-0.03,0.1-0.07,0.23-0.12,0.39H42.8C42.65,33.55,42.36,33.34,41.94,33.34z"/>
		<path class="st2" d="M50.02,37.9c-0.11-0.01-0.22-0.01-0.33-0.01c-0.1,0-0.2,0-0.3,0s-0.2,0-0.3,0c-0.1,0-0.2,0-0.3,0.01
			c-0.08-0.23-0.15-0.47-0.24-0.72c-0.08-0.24-0.17-0.49-0.26-0.73c-0.15,0-0.3-0.01-0.46-0.01c-0.15,0-0.3,0-0.46,0
			c-0.12,0-0.25,0-0.37,0c-0.12,0-0.25,0.01-0.37,0.01c-0.1,0.24-0.18,0.49-0.26,0.73c-0.08,0.24-0.16,0.48-0.22,0.72
			c-0.06-0.01-0.11-0.01-0.17-0.01c-0.05,0-0.11,0-0.17,0c-0.06,0-0.11,0-0.17,0c-0.06,0-0.12,0-0.19,0.01
			c0.06-0.12,0.13-0.3,0.23-0.51c0.1-0.22,0.2-0.47,0.31-0.74c0.11-0.28,0.24-0.57,0.37-0.89c0.13-0.32,0.26-0.64,0.39-0.96
			c0.13-0.32,0.26-0.64,0.39-0.96s0.24-0.61,0.35-0.88c0.05,0.01,0.09,0.02,0.14,0.03c0.04,0.01,0.09,0.01,0.14,0.01
			c0.05,0,0.09,0,0.14-0.01s0.09-0.02,0.14-0.03c0.15,0.41,0.32,0.84,0.49,1.3c0.17,0.46,0.35,0.92,0.53,1.36
			c0.18,0.45,0.35,0.87,0.51,1.27C49.73,37.29,49.88,37.63,50.02,37.9z M47.49,34.34c-0.12,0.29-0.24,0.57-0.35,0.85
			c-0.11,0.28-0.22,0.56-0.32,0.85h1.31c-0.1-0.29-0.21-0.58-0.31-0.85C47.71,34.9,47.6,34.62,47.49,34.34z"/>
		<path class="st2" d="M52.49,33.92c-0.01-0.31-0.02-0.62-0.04-0.93c0.08,0.01,0.17,0.02,0.26,0.03c0.1,0.01,0.2,0.01,0.32,0.01
			c0.12,0,0.23,0,0.32-0.01c0.1-0.01,0.18-0.02,0.26-0.03c-0.02,0.31-0.03,0.62-0.04,0.93c-0.01,0.31-0.01,0.66-0.01,1.05v0.97
			c0,0.4,0,0.75,0.01,1.05c0.01,0.31,0.02,0.61,0.04,0.9c-0.08-0.01-0.17-0.01-0.26-0.01c-0.1,0-0.2,0-0.32,0c-0.12,0-0.23,0-0.32,0
			c-0.1,0-0.18,0-0.26,0.01c0.02-0.3,0.03-0.6,0.04-0.9c0.01-0.31,0.01-0.66,0.01-1.05v-0.97C52.5,34.58,52.5,34.22,52.49,33.92z"/>
		<path class="st2" d="M22.44,40.97c-0.22,0-0.4,0.06-0.54,0.19c-0.14,0.13-0.21,0.28-0.21,0.45c0,0.18,0.05,0.32,0.16,0.43
			c0.11,0.11,0.24,0.21,0.4,0.3c0.16,0.09,0.34,0.18,0.52,0.26c0.19,0.08,0.36,0.19,0.52,0.31c0.16,0.12,0.3,0.27,0.4,0.44
			c0.11,0.17,0.16,0.4,0.16,0.67c0,0.24-0.05,0.46-0.14,0.65c-0.09,0.2-0.22,0.37-0.39,0.51c-0.17,0.14-0.37,0.25-0.6,0.32
			c-0.23,0.07-0.49,0.11-0.78,0.11c-0.26,0-0.49-0.03-0.69-0.08s-0.36-0.12-0.46-0.2c0.05-0.17,0.09-0.32,0.12-0.46
			c0.03-0.14,0.06-0.29,0.09-0.45h0.14c0.02,0.1,0.05,0.2,0.11,0.3c0.05,0.09,0.12,0.18,0.2,0.25c0.08,0.07,0.18,0.13,0.29,0.17
			c0.11,0.04,0.24,0.06,0.39,0.06c0.29,0,0.5-0.07,0.63-0.21c0.14-0.14,0.2-0.31,0.2-0.51c0-0.18-0.05-0.33-0.16-0.44
			c-0.1-0.11-0.24-0.22-0.39-0.3c-0.16-0.09-0.33-0.17-0.51-0.26c-0.19-0.08-0.36-0.18-0.51-0.3s-0.29-0.27-0.39-0.44
			c-0.1-0.17-0.16-0.4-0.16-0.67c0-0.25,0.04-0.47,0.13-0.66c0.09-0.19,0.21-0.35,0.35-0.48c0.15-0.13,0.32-0.23,0.51-0.29
			c0.19-0.07,0.4-0.1,0.61-0.1c0.26,0,0.48,0.03,0.68,0.09c0.19,0.06,0.36,0.15,0.5,0.26c-0.04,0.11-0.08,0.22-0.11,0.32
			c-0.03,0.1-0.07,0.23-0.12,0.39h-0.11C23.15,41.17,22.87,40.97,22.44,40.97z"/>
		<path class="st2" d="M26.76,41.4c0-0.11-0.01-0.2-0.02-0.25c-0.07,0-0.16,0-0.26,0.01c-0.1,0-0.22,0.01-0.34,0.02
			c-0.12,0.01-0.24,0.02-0.36,0.03c-0.12,0.01-0.24,0.03-0.34,0.04c0.01-0.05,0.02-0.1,0.03-0.16c0.01-0.05,0.01-0.1,0.01-0.16
			c0-0.05,0-0.1-0.01-0.16c-0.01-0.05-0.02-0.1-0.03-0.16c0.16,0,0.31,0.01,0.44,0.01c0.13,0,0.26,0.01,0.4,0.01
			c0.14,0,0.28,0,0.44,0.01c0.16,0,0.35,0,0.58,0c0.22,0,0.42,0,0.58,0c0.16,0,0.31,0,0.44-0.01c0.13,0,0.26-0.01,0.39-0.01
			c0.13,0,0.26-0.01,0.41-0.01c-0.01,0.05-0.02,0.1-0.03,0.16c-0.01,0.05-0.01,0.1-0.01,0.16c0,0.05,0,0.1,0.01,0.16
			c0.01,0.05,0.02,0.1,0.03,0.16c-0.1-0.01-0.2-0.03-0.32-0.04c-0.12-0.01-0.24-0.02-0.35-0.03c-0.12-0.01-0.23-0.01-0.33-0.02
			c-0.1,0-0.19-0.01-0.26-0.01c0,0.02-0.01,0.06-0.01,0.1c0,0.04,0,0.09,0,0.15v0.38v1.79c0,0.4,0,0.75,0.01,1.05
			c0.01,0.31,0.02,0.61,0.04,0.9c-0.08-0.01-0.17-0.01-0.26-0.01c-0.1,0-0.2,0-0.32,0c-0.12,0-0.23,0-0.32,0s-0.18,0-0.26,0.01
			c0.02-0.3,0.03-0.6,0.04-0.9c0.01-0.31,0.01-0.66,0.01-1.05v-1.79C26.76,41.64,26.76,41.52,26.76,41.4z"/>
		<path class="st2" d="M34.73,45.53c-0.11-0.01-0.22-0.01-0.33-0.01c-0.1,0-0.2,0-0.3,0s-0.2,0-0.3,0c-0.1,0-0.2,0-0.3,0.01
			c-0.08-0.23-0.15-0.47-0.24-0.72c-0.08-0.24-0.17-0.49-0.26-0.73c-0.15,0-0.3-0.01-0.46-0.01c-0.15,0-0.3,0-0.46,0
			c-0.12,0-0.25,0-0.37,0c-0.12,0-0.25,0.01-0.37,0.01c-0.1,0.24-0.18,0.49-0.26,0.73c-0.08,0.24-0.16,0.48-0.22,0.72
			c-0.06-0.01-0.11-0.01-0.17-0.01s-0.11,0-0.17,0s-0.11,0-0.17,0c-0.06,0-0.12,0-0.19,0.01c0.06-0.12,0.13-0.3,0.23-0.51
			c0.1-0.22,0.2-0.47,0.31-0.74c0.11-0.28,0.24-0.57,0.37-0.89c0.13-0.32,0.26-0.64,0.39-0.96s0.26-0.64,0.39-0.96
			c0.13-0.31,0.24-0.61,0.35-0.88c0.05,0.01,0.09,0.02,0.14,0.03c0.04,0.01,0.09,0.01,0.14,0.01c0.05,0,0.09,0,0.14-0.01
			c0.04-0.01,0.09-0.02,0.14-0.03c0.15,0.41,0.32,0.84,0.49,1.3c0.17,0.46,0.35,0.92,0.53,1.36c0.18,0.45,0.35,0.87,0.51,1.27
			S34.59,45.25,34.73,45.53z M32.2,41.96c-0.12,0.29-0.24,0.57-0.35,0.85c-0.11,0.28-0.22,0.56-0.32,0.85h1.31
			c-0.1-0.29-0.21-0.58-0.31-0.85C32.42,42.53,32.32,42.25,32.2,41.96z"/>
		<path class="st2" d="M36.39,42.04c0-0.33,0-0.61-0.01-0.83c-0.01-0.22-0.02-0.42-0.02-0.59c0.13,0.02,0.24,0.04,0.32,0.04
			c0.08,0,0.19-0.01,0.32-0.04c0.52,0.58,1.03,1.14,1.54,1.7c0.51,0.56,1.03,1.13,1.56,1.7V43.4v-0.69c0-0.23,0-0.46,0-0.69
			c0-0.23,0-0.44-0.01-0.63c0-0.19-0.01-0.36-0.01-0.49c-0.01-0.14-0.02-0.23-0.03-0.28c0.13,0.02,0.24,0.04,0.32,0.04
			c0.08,0,0.19-0.01,0.32-0.04c-0.02,0.43-0.04,0.83-0.06,1.18c-0.01,0.35-0.03,0.68-0.04,0.99c-0.01,0.31-0.02,0.62-0.02,0.92
			c0,0.3,0,0.63,0,0.97v0.86c-0.1-0.01-0.19-0.01-0.29-0.01c-0.1,0-0.2,0-0.28,0.01c-0.98-1.14-2.02-2.3-3.12-3.45
			c0,0.14-0.01,0.28-0.01,0.41c0,0.14,0,0.28,0,0.42v0.83c0,0.29,0,0.53,0,0.73c0,0.2,0.01,0.37,0.01,0.51
			c0,0.14,0.01,0.25,0.01,0.34c0,0.09,0.01,0.16,0.01,0.21c-0.06-0.01-0.11-0.01-0.17-0.01s-0.11,0-0.16,0c-0.11,0-0.22,0-0.33,0.01
			c0.01-0.04,0.02-0.17,0.04-0.41c0.01-0.23,0.03-0.52,0.05-0.85s0.03-0.7,0.04-1.09C36.38,42.78,36.39,42.4,36.39,42.04z"/>
		<path class="st2" d="M43.03,42.6c0-0.4,0-0.75-0.01-1.05c-0.01-0.31-0.02-0.62-0.04-0.93c0.08,0.01,0.17,0.02,0.26,0.03
			c0.1,0.01,0.2,0.01,0.32,0.01c0.16,0,0.33-0.01,0.53-0.02c0.2-0.01,0.45-0.02,0.77-0.02c0.41,0,0.78,0.04,1.12,0.11
			c0.34,0.07,0.63,0.2,0.87,0.38c0.24,0.18,0.43,0.41,0.56,0.71c0.13,0.3,0.2,0.67,0.2,1.13c0,0.4-0.07,0.75-0.2,1.07
			c-0.13,0.32-0.31,0.59-0.54,0.82c-0.23,0.23-0.49,0.4-0.79,0.52c-0.3,0.12-0.62,0.18-0.95,0.18c-0.36,0-0.66,0-0.92-0.01
			c-0.25,0-0.47-0.01-0.66-0.01c-0.12,0-0.23,0-0.32,0c-0.1,0-0.18,0-0.26,0.01c0.02-0.3,0.03-0.6,0.04-0.9
			c0.01-0.31,0.01-0.66,0.01-1.05V42.6z M44.09,44.09v0.43c0,0.14,0,0.26,0,0.38c0,0.11,0,0.19,0,0.22c0.07,0,0.16,0.01,0.26,0.01
			c0.1,0,0.22,0.01,0.37,0.01c0.54,0,0.97-0.18,1.28-0.55c0.31-0.37,0.47-0.92,0.47-1.67c0-0.3-0.04-0.56-0.12-0.79
			c-0.08-0.23-0.19-0.43-0.33-0.6s-0.31-0.29-0.51-0.38c-0.2-0.09-0.42-0.13-0.67-0.13c-0.17,0-0.31,0-0.42,0.01
			c-0.11,0.01-0.22,0.02-0.33,0.03c0,0.03,0,0.11,0,0.22c0,0.11,0,0.24,0,0.39v0.43v0.36v1.27V44.09z"/>
		<path class="st2" d="M50.98,40.97c-0.22,0-0.4,0.06-0.54,0.19s-0.21,0.28-0.21,0.45c0,0.18,0.05,0.32,0.16,0.43
			c0.11,0.11,0.24,0.21,0.4,0.3c0.16,0.09,0.34,0.18,0.52,0.26s0.36,0.19,0.52,0.31c0.16,0.12,0.3,0.27,0.4,0.44
			c0.11,0.17,0.16,0.4,0.16,0.67c0,0.24-0.05,0.46-0.14,0.65c-0.09,0.2-0.22,0.37-0.39,0.51c-0.17,0.14-0.37,0.25-0.6,0.32
			c-0.23,0.07-0.49,0.11-0.78,0.11c-0.26,0-0.49-0.03-0.69-0.08c-0.2-0.05-0.36-0.12-0.46-0.2c0.05-0.17,0.09-0.32,0.12-0.46
			c0.03-0.14,0.06-0.29,0.09-0.45h0.14c0.02,0.1,0.05,0.2,0.11,0.3c0.05,0.09,0.12,0.18,0.2,0.25c0.08,0.07,0.18,0.13,0.29,0.17
			c0.11,0.04,0.24,0.06,0.39,0.06c0.29,0,0.5-0.07,0.63-0.21c0.14-0.14,0.2-0.31,0.2-0.51c0-0.18-0.05-0.33-0.16-0.44
			c-0.1-0.11-0.24-0.22-0.39-0.3c-0.16-0.09-0.33-0.17-0.51-0.26c-0.19-0.08-0.36-0.18-0.51-0.3c-0.16-0.12-0.29-0.27-0.39-0.44
			c-0.1-0.17-0.16-0.4-0.16-0.67c0-0.25,0.04-0.47,0.13-0.66c0.09-0.19,0.21-0.35,0.35-0.48c0.15-0.13,0.32-0.23,0.51-0.29
			c0.19-0.07,0.4-0.1,0.61-0.1c0.26,0,0.48,0.03,0.68,0.09c0.19,0.06,0.36,0.15,0.5,0.26c-0.04,0.11-0.08,0.22-0.11,0.32
			c-0.03,0.1-0.07,0.23-0.12,0.39h-0.11C51.7,41.17,51.41,40.97,50.98,40.97z"/>
	</g>
	<g>
		<path class="st2" d="M21.83,16.87c0.25,0.48,0.49,0.95,0.74,1.43c-0.05,0.02-0.1,0.05-0.15,0.08c-0.05,0.03-0.1,0.06-0.14,0.09
			c-0.05,0.03-0.1,0.06-0.14,0.09c-0.05,0.03-0.09,0.06-0.14,0.1c-0.3-0.78-0.61-1.55-0.93-2.3c-0.32-0.75-0.65-1.51-1-2.28
			c0.05-0.02,0.1-0.04,0.14-0.05c0.04-0.02,0.09-0.04,0.13-0.07c0.04-0.02,0.07-0.05,0.11-0.08c0.04-0.03,0.08-0.06,0.12-0.1
			c0.26,0.18,0.52,0.36,0.8,0.53c0.27,0.18,0.55,0.36,0.82,0.53c0.27,0.18,0.54,0.35,0.81,0.52c0.27,0.17,0.52,0.32,0.76,0.47
			c-0.03-0.6-0.08-1.23-0.14-1.88c-0.06-0.65-0.13-1.28-0.21-1.91c0.11-0.04,0.21-0.08,0.28-0.13c0.07-0.04,0.15-0.1,0.24-0.19
			c0.25,0.32,0.53,0.67,0.82,1.05c0.29,0.37,0.58,0.74,0.86,1.1c0.28,0.36,0.54,0.69,0.79,1c0.25,0.31,0.45,0.55,0.61,0.73
			c-0.09,0.04-0.17,0.09-0.25,0.14c-0.08,0.05-0.17,0.1-0.25,0.15c-0.08,0.05-0.16,0.1-0.25,0.15c-0.09,0.05-0.17,0.11-0.25,0.17
			c-0.28-0.41-0.59-0.84-0.93-1.3c-0.34-0.46-0.69-0.91-1.03-1.36l-0.01,0.01c0.06,0.62,0.12,1.23,0.18,1.83
			c0.06,0.6,0.12,1.2,0.19,1.8c-0.02,0.01-0.04,0.02-0.06,0.03c-0.02,0.01-0.04,0.02-0.06,0.03c-0.02,0.01-0.04,0.03-0.06,0.04
			c-0.02,0.01-0.03,0.03-0.05,0.04c-0.5-0.32-0.99-0.64-1.49-0.97c-0.5-0.32-1-0.65-1.52-0.97l-0.01,0.01
			C21.35,15.9,21.59,16.4,21.83,16.87z"/>
		<path class="st2" d="M32.25,14.1c-0.11,0.02-0.22,0.05-0.32,0.07c-0.1,0.03-0.2,0.05-0.29,0.08s-0.19,0.05-0.29,0.08
			c-0.1,0.03-0.19,0.06-0.29,0.1c-0.14-0.2-0.28-0.41-0.42-0.63c-0.14-0.21-0.29-0.42-0.44-0.63c-0.15,0.04-0.3,0.07-0.44,0.11
			c-0.15,0.04-0.29,0.08-0.44,0.12c-0.12,0.03-0.24,0.07-0.36,0.1c-0.12,0.04-0.24,0.07-0.36,0.11c-0.03,0.26-0.05,0.52-0.06,0.77
			c-0.01,0.26-0.02,0.51-0.02,0.75c-0.06,0.01-0.11,0.02-0.17,0.03c-0.05,0.01-0.11,0.03-0.16,0.04c-0.06,0.02-0.11,0.03-0.17,0.05
			c-0.06,0.02-0.11,0.04-0.18,0.06c0.02-0.13,0.05-0.32,0.08-0.56c0.03-0.24,0.07-0.5,0.1-0.8c0.04-0.3,0.07-0.62,0.12-0.96
			c0.04-0.34,0.08-0.68,0.12-1.03c0.04-0.35,0.08-0.69,0.12-1.03c0.04-0.34,0.07-0.65,0.1-0.94c0.05,0,0.09-0.01,0.14-0.01
			c0.04,0,0.09-0.01,0.13-0.03c0.05-0.01,0.09-0.03,0.13-0.05c0.04-0.02,0.08-0.04,0.12-0.06c0.26,0.35,0.53,0.72,0.82,1.12
			c0.29,0.4,0.58,0.79,0.87,1.17c0.29,0.38,0.57,0.74,0.84,1.08C31.81,13.59,32.04,13.87,32.25,14.1z M28.86,11.34
			c-0.04,0.31-0.08,0.61-0.11,0.91c-0.03,0.3-0.06,0.6-0.08,0.91l1.26-0.35c-0.18-0.25-0.35-0.5-0.53-0.74
			C29.22,11.83,29.04,11.59,28.86,11.34z"/>
		<path class="st2" d="M33.5,11.01c-0.01-0.4-0.02-0.75-0.03-1.05c-0.01-0.31-0.03-0.62-0.06-0.93c0.08,0.01,0.17,0.02,0.26,0.02
			c0.1,0.01,0.2,0.01,0.32,0.01c0.16,0,0.33-0.01,0.53-0.03C34.72,9.01,34.98,9,35.29,9c0.41-0.01,0.78,0.03,1.12,0.1
			c0.34,0.07,0.63,0.19,0.87,0.36c0.25,0.17,0.44,0.41,0.57,0.7c0.14,0.3,0.21,0.67,0.22,1.12c0.01,0.4-0.06,0.75-0.18,1.08
			c-0.13,0.32-0.3,0.6-0.53,0.83c-0.22,0.23-0.48,0.41-0.78,0.53c-0.3,0.12-0.61,0.19-0.95,0.19c-0.36,0.01-0.66,0.01-0.92,0.01
			c-0.25,0-0.47,0-0.66,0c-0.12,0-0.23,0-0.32,0c-0.1,0-0.18,0.01-0.26,0.02c0.02-0.3,0.03-0.6,0.03-0.9c0-0.31,0.01-0.66,0-1.05
			L33.5,11.01z M34.58,12.49l0.01,0.43c0,0.14,0,0.26,0.01,0.38c0,0.11,0.01,0.19,0.01,0.22c0.07,0,0.16,0.01,0.26,0.01
			c0.1,0,0.22,0,0.37,0c0.54-0.01,0.96-0.2,1.27-0.57c0.31-0.37,0.46-0.93,0.45-1.67c0-0.3-0.05-0.56-0.13-0.79
			c-0.08-0.23-0.2-0.43-0.34-0.59c-0.15-0.16-0.32-0.29-0.52-0.37s-0.43-0.13-0.67-0.12c-0.17,0-0.31,0.01-0.42,0.02
			c-0.11,0.01-0.22,0.02-0.32,0.03c0,0.03,0,0.11,0,0.22c0,0.11,0,0.24,0,0.39l0.01,0.43l0,0.36l0.02,1.27L34.58,12.49z"/>
		<path class="st2" d="M40.44,10.27c0.06-0.3,0.11-0.61,0.16-0.91c0.21,0.05,0.41,0.1,0.62,0.16c0.2,0.05,0.41,0.11,0.62,0.15
			c0.34,0.08,0.65,0.14,0.92,0.19c0.27,0.05,0.45,0.08,0.55,0.1c-0.03,0.07-0.07,0.17-0.09,0.29c-0.02,0.07-0.03,0.13-0.03,0.18
			s-0.01,0.09-0.01,0.14c-0.13-0.04-0.28-0.08-0.44-0.13c-0.16-0.04-0.31-0.09-0.46-0.13c-0.15-0.04-0.28-0.08-0.4-0.11
			c-0.12-0.03-0.21-0.05-0.26-0.06c-0.08,0.25-0.14,0.5-0.2,0.75c-0.06,0.25-0.12,0.5-0.17,0.76c0.3,0.06,0.58,0.12,0.82,0.16
			c0.25,0.04,0.5,0.09,0.77,0.13c-0.03,0.08-0.05,0.13-0.07,0.18c-0.01,0.04-0.03,0.08-0.04,0.13c-0.01,0.04-0.01,0.08-0.02,0.12
			c0,0.04-0.01,0.1-0.01,0.18c-0.52-0.16-1.05-0.3-1.57-0.41c-0.03,0.15-0.07,0.3-0.1,0.45c-0.04,0.15-0.07,0.3-0.1,0.45
			c-0.07,0.3-0.12,0.59-0.17,0.88c0.27,0.06,0.53,0.11,0.8,0.15c0.27,0.04,0.54,0.08,0.82,0.11c-0.02,0.05-0.04,0.09-0.05,0.14
			c-0.01,0.04-0.03,0.1-0.05,0.17c-0.02,0.07-0.03,0.13-0.03,0.18c0,0.04-0.01,0.08,0,0.11c-0.12-0.03-0.28-0.07-0.46-0.11
			c-0.18-0.04-0.44-0.1-0.76-0.17c-0.28-0.06-0.51-0.11-0.69-0.15c-0.17-0.04-0.31-0.07-0.42-0.09c-0.1-0.02-0.18-0.04-0.24-0.05
			c-0.05-0.01-0.1-0.02-0.14-0.02c0.08-0.28,0.16-0.58,0.24-0.87c0.08-0.3,0.16-0.64,0.24-1.03l0.21-0.95
			C40.31,10.92,40.38,10.57,40.44,10.27z"/>
		<path class="st2" d="M48.13,12.9c0.14-0.27,0.28-0.55,0.41-0.83c0.07,0.05,0.14,0.1,0.22,0.15c0.08,0.05,0.17,0.11,0.28,0.17
			c0.1,0.06,0.2,0.11,0.29,0.15c0.09,0.04,0.17,0.08,0.24,0.11c-0.17,0.26-0.33,0.52-0.49,0.79c-0.16,0.26-0.33,0.57-0.52,0.92
			l-0.47,0.85c-0.19,0.35-0.36,0.66-0.5,0.93c-0.14,0.27-0.27,0.54-0.4,0.81c-0.07-0.05-0.14-0.09-0.22-0.14
			c-0.08-0.05-0.18-0.1-0.28-0.16c-0.1-0.06-0.2-0.11-0.28-0.16c-0.08-0.05-0.16-0.08-0.24-0.12c0.16-0.25,0.32-0.51,0.47-0.77
			c0.16-0.26,0.33-0.57,0.52-0.92l0.47-0.85C47.82,13.49,47.99,13.18,48.13,12.9z"/>
		<path class="st2" d="M51.13,15.27c0.21-0.25,0.39-0.46,0.53-0.64c0.14-0.18,0.26-0.33,0.37-0.46c0.09,0.11,0.16,0.18,0.22,0.24
			s0.15,0.11,0.27,0.18c0.02,0.78,0.03,1.54,0.05,2.3c0.02,0.75,0.04,1.52,0.07,2.31l0.41-0.47l0.45-0.52
			c0.15-0.18,0.3-0.35,0.45-0.52c0.15-0.17,0.28-0.33,0.4-0.48c0.12-0.15,0.23-0.27,0.31-0.38c0.08-0.11,0.14-0.19,0.16-0.23
			c0.09,0.11,0.16,0.18,0.22,0.24c0.06,0.05,0.15,0.11,0.27,0.18c-0.3,0.31-0.57,0.6-0.81,0.85c-0.24,0.26-0.47,0.5-0.67,0.73
			c-0.21,0.23-0.41,0.46-0.61,0.68c-0.2,0.23-0.41,0.47-0.64,0.73l-0.56,0.65c-0.07-0.07-0.14-0.14-0.21-0.2
			c-0.08-0.07-0.15-0.13-0.22-0.17c0-1.51-0.03-3.06-0.11-4.66c-0.09,0.1-0.19,0.2-0.28,0.31c-0.09,0.1-0.19,0.21-0.28,0.32
			l-0.54,0.63c-0.19,0.22-0.35,0.4-0.47,0.55c-0.13,0.15-0.24,0.28-0.32,0.39c-0.09,0.11-0.16,0.2-0.21,0.27
			c-0.05,0.07-0.1,0.13-0.13,0.17c-0.04-0.04-0.08-0.09-0.12-0.12c-0.04-0.04-0.08-0.07-0.12-0.11c-0.08-0.07-0.17-0.14-0.26-0.2
			c0.03-0.02,0.13-0.12,0.29-0.29c0.16-0.17,0.36-0.37,0.59-0.62c0.23-0.24,0.48-0.51,0.75-0.8C50.64,15.82,50.9,15.54,51.13,15.27z
			"/>
		<path class="st2" d="M56.99,27.36c-0.1,0.02-0.2,0.05-0.3,0.09c-0.35-0.25-0.66-0.64-0.93-1.16c-0.19-0.37-0.31-0.72-0.36-1.07
			c-0.05-0.34-0.03-0.66,0.05-0.96c0.08-0.3,0.23-0.57,0.43-0.81c0.2-0.24,0.45-0.44,0.75-0.59c0.44-0.23,0.85-0.35,1.23-0.38
			c0.38-0.02,0.72,0.03,1.04,0.16c0.31,0.13,0.59,0.32,0.84,0.58c0.25,0.26,0.46,0.55,0.63,0.89c0.06,0.11,0.11,0.23,0.16,0.36
			c0.05,0.13,0.09,0.26,0.12,0.39c0.03,0.13,0.06,0.25,0.07,0.38c0.02,0.12,0.02,0.23,0.02,0.33c-0.13,0.01-0.25,0.04-0.37,0.07
			c-0.12,0.03-0.24,0.07-0.35,0.12l-0.05-0.09c0.12-0.27,0.18-0.51,0.18-0.72c0-0.21-0.06-0.44-0.18-0.66
			c-0.09-0.17-0.21-0.32-0.38-0.45c-0.17-0.13-0.36-0.23-0.59-0.28c-0.23-0.06-0.49-0.07-0.78-0.03c-0.29,0.04-0.6,0.15-0.94,0.32
			c-0.33,0.17-0.58,0.36-0.76,0.57c-0.18,0.21-0.31,0.42-0.38,0.64c-0.07,0.22-0.1,0.43-0.07,0.65c0.03,0.21,0.09,0.41,0.18,0.6
			c0.05,0.1,0.12,0.2,0.2,0.29c0.08,0.09,0.16,0.18,0.26,0.26c0.09,0.08,0.19,0.15,0.3,0.21c0.11,0.06,0.21,0.11,0.32,0.14
			l-0.01,0.11C57.19,27.33,57.09,27.34,56.99,27.36z"/>
		<path class="st2" d="M60.86,28.01c0.29-0.09,0.59-0.18,0.88-0.28c0.05,0.21,0.1,0.41,0.14,0.62c0.05,0.2,0.1,0.41,0.15,0.62
			c0.09,0.34,0.18,0.64,0.26,0.9c0.08,0.26,0.13,0.44,0.17,0.53c-0.08,0-0.18,0.02-0.3,0.05c-0.07,0.02-0.13,0.04-0.17,0.05
			c-0.04,0.02-0.08,0.03-0.13,0.06c-0.03-0.14-0.06-0.28-0.09-0.45c-0.03-0.16-0.07-0.32-0.1-0.47c-0.03-0.15-0.06-0.29-0.09-0.41
			c-0.03-0.12-0.05-0.21-0.06-0.26c-0.26,0.05-0.51,0.11-0.76,0.17s-0.5,0.13-0.75,0.2c0.09,0.3,0.16,0.57,0.24,0.81
			c0.07,0.24,0.15,0.49,0.24,0.75c-0.08,0.01-0.14,0.01-0.19,0.02c-0.04,0.01-0.09,0.02-0.13,0.03c-0.04,0.01-0.07,0.02-0.11,0.04
			c-0.04,0.02-0.09,0.04-0.16,0.07c-0.1-0.54-0.22-1.06-0.36-1.58c-0.15,0.04-0.3,0.08-0.44,0.12c-0.15,0.04-0.3,0.08-0.44,0.12
			c-0.3,0.08-0.59,0.17-0.86,0.25c0.07,0.26,0.15,0.52,0.23,0.78c0.08,0.26,0.18,0.52,0.28,0.78c-0.05,0-0.1,0.01-0.14,0.02
			c-0.04,0.01-0.1,0.02-0.17,0.04c-0.07,0.02-0.13,0.04-0.17,0.05c-0.04,0.02-0.07,0.03-0.1,0.05c-0.03-0.13-0.07-0.28-0.11-0.46
			c-0.05-0.18-0.11-0.43-0.2-0.75c-0.08-0.28-0.14-0.51-0.18-0.68c-0.05-0.17-0.08-0.31-0.11-0.41c-0.03-0.1-0.05-0.18-0.07-0.23
			c-0.02-0.05-0.03-0.1-0.05-0.13c0.29-0.06,0.58-0.12,0.88-0.19c0.3-0.07,0.64-0.16,1.02-0.26l0.94-0.25
			C60.23,28.19,60.56,28.09,60.86,28.01z"/>
		<path class="st2" d="M61.51,33.12c0.33-0.01,0.6-0.02,0.83-0.04c0.22-0.02,0.42-0.03,0.59-0.04c-0.02,0.13-0.03,0.24-0.03,0.32
			c0,0.08,0.02,0.19,0.05,0.32c-0.56,0.54-1.11,1.07-1.65,1.59c-0.54,0.52-1.09,1.06-1.65,1.62l0.62-0.02l0.69-0.02
			c0.23-0.01,0.46-0.02,0.69-0.03c0.23-0.01,0.43-0.02,0.63-0.03c0.19-0.01,0.35-0.02,0.49-0.03c0.14-0.01,0.23-0.02,0.28-0.03
			c-0.02,0.13-0.03,0.24-0.03,0.32c0,0.08,0.02,0.19,0.05,0.32c-0.43-0.01-0.83-0.02-1.18-0.02c-0.35,0-0.68,0-0.99,0
			c-0.31,0-0.62,0-0.92,0.01c-0.3,0.01-0.63,0.02-0.97,0.03l-0.86,0.03c0.01-0.1,0.01-0.19,0-0.29c0-0.1-0.01-0.2-0.02-0.28
			c1.11-1.02,2.23-2.09,3.35-3.23c-0.14,0-0.28,0-0.41,0c-0.14,0-0.28,0.01-0.42,0.01l-0.83,0.03c-0.29,0.01-0.53,0.02-0.73,0.03
			c-0.2,0.01-0.37,0.02-0.51,0.03c-0.14,0.01-0.25,0.02-0.34,0.03c-0.09,0.01-0.16,0.01-0.21,0.02c0.01-0.06,0.01-0.11,0.01-0.17
			c0-0.06,0-0.11-0.01-0.16c0-0.11-0.01-0.22-0.02-0.33c0.04,0.01,0.17,0.02,0.41,0.02c0.23,0.01,0.52,0.01,0.86,0.02
			c0.34,0.01,0.7,0.01,1.09,0.01C60.77,33.13,61.14,33.13,61.51,33.12z"/>
		<path class="st2" d="M61.76,40.95c0.11,0.02,0.2,0.03,0.25,0.03c0.01-0.07,0.03-0.16,0.05-0.26c0.02-0.1,0.03-0.21,0.05-0.33
			c0.02-0.12,0.03-0.24,0.05-0.36c0.01-0.12,0.02-0.24,0.03-0.34c0.05,0.02,0.1,0.04,0.15,0.06c0.05,0.02,0.1,0.03,0.15,0.04
			c0.05,0.01,0.1,0.02,0.16,0.02c0.05,0,0.11,0.01,0.16,0.01c-0.04,0.16-0.07,0.3-0.1,0.43c-0.03,0.13-0.06,0.26-0.09,0.39
			c-0.03,0.13-0.06,0.28-0.1,0.43c-0.03,0.16-0.08,0.34-0.12,0.56c-0.05,0.22-0.09,0.41-0.12,0.56c-0.03,0.16-0.06,0.3-0.08,0.43
			c-0.03,0.13-0.05,0.26-0.07,0.38c-0.02,0.12-0.05,0.26-0.07,0.41c-0.05-0.02-0.1-0.04-0.15-0.06c-0.05-0.02-0.1-0.03-0.15-0.04
			c-0.05-0.01-0.1-0.02-0.16-0.02c-0.05,0-0.11-0.01-0.16-0.01c0.03-0.09,0.07-0.19,0.1-0.31c0.04-0.11,0.07-0.23,0.1-0.34
			c0.03-0.11,0.06-0.22,0.09-0.32c0.03-0.1,0.05-0.19,0.06-0.26c-0.02-0.01-0.05-0.02-0.1-0.03c-0.04-0.01-0.09-0.02-0.15-0.03
			l-0.37-0.08l-1.75-0.37c-0.39-0.08-0.73-0.15-1.03-0.2c-0.3-0.05-0.6-0.1-0.89-0.15c0.03-0.08,0.05-0.16,0.07-0.26
			c0.02-0.09,0.04-0.2,0.07-0.31c0.02-0.12,0.05-0.22,0.07-0.31c0.02-0.09,0.03-0.18,0.04-0.26c0.29,0.08,0.58,0.16,0.88,0.23
			c0.3,0.07,0.64,0.15,1.03,0.23l1.75,0.37C61.52,40.91,61.65,40.93,61.76,40.95z"/>
		<path class="st2" d="M60.44,45.22c0.29,0.11,0.58,0.22,0.87,0.33c-0.09,0.19-0.18,0.39-0.27,0.58c-0.09,0.19-0.18,0.38-0.27,0.58
			c-0.14,0.32-0.26,0.61-0.36,0.87c-0.1,0.25-0.17,0.43-0.2,0.52c-0.06-0.05-0.15-0.1-0.26-0.15c-0.07-0.03-0.13-0.05-0.17-0.06
			c-0.04-0.01-0.09-0.03-0.14-0.04c0.06-0.12,0.13-0.26,0.21-0.41c0.07-0.15,0.15-0.29,0.22-0.43c0.07-0.14,0.13-0.26,0.19-0.38
			c0.05-0.11,0.09-0.19,0.11-0.24c-0.23-0.12-0.47-0.23-0.7-0.34c-0.24-0.1-0.47-0.21-0.71-0.31c-0.12,0.29-0.22,0.55-0.31,0.78
			c-0.09,0.23-0.18,0.48-0.28,0.73c-0.07-0.05-0.12-0.08-0.16-0.1c-0.04-0.02-0.08-0.04-0.12-0.06c-0.03-0.02-0.07-0.03-0.11-0.04
			c-0.04-0.01-0.1-0.03-0.17-0.05c0.25-0.48,0.49-0.97,0.7-1.47c-0.14-0.06-0.28-0.12-0.42-0.18c-0.14-0.06-0.28-0.12-0.42-0.18
			c-0.28-0.12-0.56-0.23-0.83-0.33c-0.11,0.25-0.21,0.5-0.3,0.76c-0.09,0.26-0.18,0.52-0.26,0.78c-0.04-0.03-0.09-0.06-0.12-0.08
			c-0.04-0.02-0.09-0.05-0.16-0.08c-0.07-0.03-0.13-0.05-0.17-0.06c-0.04-0.01-0.08-0.02-0.11-0.02c0.06-0.12,0.12-0.26,0.2-0.43
			c0.08-0.17,0.18-0.41,0.31-0.71c0.12-0.27,0.21-0.48,0.28-0.65c0.07-0.16,0.13-0.29,0.17-0.39c0.04-0.1,0.07-0.17,0.09-0.22
			c0.02-0.05,0.03-0.1,0.05-0.13c0.26,0.13,0.54,0.27,0.81,0.4c0.28,0.13,0.6,0.27,0.96,0.43l0.89,0.38
			C59.83,44.97,60.15,45.11,60.44,45.22z"/>
		<path class="st2" d="M57.77,49.63c0.26,0.2,0.49,0.36,0.67,0.48c0.19,0.13,0.35,0.24,0.49,0.34c-0.1,0.09-0.17,0.17-0.22,0.24
			c-0.05,0.06-0.1,0.16-0.16,0.28c-0.77,0.07-1.53,0.14-2.29,0.22c-0.75,0.07-1.52,0.15-2.3,0.23l0.5,0.37l0.56,0.41
			c0.19,0.14,0.37,0.28,0.56,0.41c0.18,0.13,0.35,0.26,0.51,0.37c0.15,0.11,0.29,0.21,0.4,0.28c0.11,0.08,0.19,0.13,0.24,0.15
			c-0.1,0.09-0.17,0.17-0.22,0.24c-0.05,0.06-0.1,0.16-0.16,0.28c-0.33-0.28-0.64-0.53-0.91-0.75c-0.27-0.22-0.53-0.43-0.77-0.62
			c-0.24-0.19-0.48-0.38-0.73-0.56c-0.24-0.18-0.5-0.38-0.77-0.58l-0.69-0.51c0.07-0.07,0.13-0.15,0.19-0.23
			c0.06-0.08,0.11-0.16,0.16-0.23c1.5-0.1,3.05-0.25,4.64-0.44c-0.11-0.09-0.22-0.17-0.33-0.26c-0.11-0.08-0.22-0.17-0.34-0.26
			l-0.66-0.5c-0.23-0.17-0.42-0.32-0.59-0.43c-0.16-0.12-0.3-0.22-0.41-0.29c-0.11-0.08-0.21-0.14-0.28-0.19
			c-0.07-0.05-0.13-0.09-0.18-0.11c0.04-0.04,0.08-0.08,0.11-0.13c0.03-0.05,0.07-0.09,0.1-0.13c0.07-0.09,0.13-0.18,0.19-0.27
			c0.03,0.03,0.13,0.12,0.31,0.27c0.18,0.15,0.4,0.33,0.66,0.55c0.26,0.21,0.54,0.44,0.85,0.69C57.18,49.18,57.48,49.41,57.77,49.63
			z"/>
		<path class="st2" d="M53.26,55.02c0.2,0.26,0.37,0.48,0.52,0.65s0.27,0.32,0.38,0.46c-0.12,0.06-0.21,0.12-0.28,0.17
			c-0.06,0.05-0.14,0.12-0.23,0.22c-0.76-0.14-1.52-0.27-2.26-0.41c-0.74-0.13-1.5-0.26-2.28-0.39l0.38,0.49l0.42,0.55
			c0.14,0.18,0.28,0.37,0.42,0.54c0.14,0.18,0.27,0.34,0.39,0.49c0.12,0.15,0.22,0.28,0.31,0.38c0.09,0.11,0.15,0.17,0.19,0.21
			c-0.12,0.06-0.21,0.12-0.28,0.17c-0.06,0.05-0.14,0.12-0.23,0.22c-0.25-0.36-0.47-0.68-0.67-0.97c-0.2-0.29-0.39-0.55-0.58-0.81
			c-0.18-0.25-0.36-0.5-0.55-0.74c-0.18-0.24-0.38-0.5-0.59-0.77l-0.52-0.68c0.08-0.05,0.16-0.11,0.24-0.17
			c0.08-0.06,0.15-0.12,0.21-0.18c1.48,0.31,3,0.58,4.58,0.82c-0.08-0.11-0.16-0.22-0.24-0.33c-0.08-0.11-0.17-0.22-0.26-0.34
			l-0.51-0.66c-0.17-0.23-0.32-0.42-0.45-0.58c-0.12-0.16-0.23-0.29-0.32-0.4c-0.09-0.11-0.16-0.19-0.22-0.26
			c-0.06-0.07-0.1-0.12-0.14-0.16c0.05-0.03,0.1-0.06,0.14-0.09c0.05-0.03,0.09-0.07,0.13-0.1c0.09-0.07,0.17-0.14,0.25-0.21
			c0.02,0.04,0.09,0.15,0.22,0.34c0.13,0.19,0.29,0.43,0.49,0.7c0.19,0.28,0.4,0.57,0.63,0.89C52.81,54.43,53.03,54.73,53.26,55.02z
			"/>
		<path class="st2" d="M47.8,59.29c0.14,0.27,0.29,0.54,0.44,0.82c-0.08,0.03-0.16,0.06-0.25,0.09c-0.09,0.03-0.19,0.08-0.29,0.13
			c-0.11,0.05-0.2,0.1-0.29,0.15c-0.08,0.05-0.16,0.09-0.23,0.14c-0.12-0.29-0.24-0.57-0.36-0.85c-0.12-0.28-0.27-0.6-0.44-0.96
			l-0.42-0.88c-0.17-0.36-0.33-0.67-0.47-0.94c-0.14-0.27-0.29-0.54-0.43-0.8c0.08-0.03,0.16-0.06,0.24-0.1
			c0.09-0.04,0.18-0.09,0.29-0.14c0.11-0.05,0.2-0.1,0.29-0.14c0.09-0.04,0.16-0.08,0.23-0.13c0.11,0.27,0.23,0.55,0.35,0.83
			c0.12,0.28,0.27,0.6,0.45,0.96l0.42,0.88C47.51,58.7,47.66,59.01,47.8,59.29z"/>
		<path class="st2" d="M39.46,57.96c0.11-0.02,0.22-0.04,0.32-0.07c0.1-0.03,0.2-0.05,0.29-0.08c0.1-0.03,0.19-0.05,0.29-0.08
			s0.2-0.06,0.29-0.09c0.13,0.21,0.27,0.42,0.41,0.63c0.14,0.21,0.29,0.43,0.44,0.64c0.15-0.03,0.3-0.07,0.45-0.11
			c0.15-0.04,0.3-0.07,0.44-0.11c0.12-0.03,0.24-0.06,0.36-0.1c0.12-0.03,0.24-0.07,0.36-0.11c0.03-0.26,0.05-0.52,0.07-0.77
			c0.02-0.26,0.03-0.51,0.03-0.75c0.06-0.01,0.11-0.02,0.17-0.03c0.05-0.01,0.11-0.03,0.16-0.04c0.06-0.01,0.11-0.03,0.17-0.04
			c0.05-0.01,0.11-0.04,0.18-0.06c-0.02,0.13-0.05,0.32-0.09,0.56s-0.07,0.5-0.11,0.8c-0.04,0.3-0.08,0.61-0.13,0.95
			c-0.05,0.34-0.09,0.68-0.13,1.03c-0.04,0.35-0.09,0.69-0.13,1.02c-0.04,0.34-0.08,0.65-0.11,0.94c-0.05,0-0.09,0.01-0.14,0.01
			c-0.04,0-0.09,0.01-0.13,0.02c-0.05,0.01-0.09,0.03-0.13,0.05c-0.04,0.02-0.08,0.04-0.12,0.06c-0.25-0.35-0.52-0.73-0.81-1.13
			c-0.29-0.4-0.57-0.8-0.86-1.18c-0.28-0.39-0.56-0.75-0.82-1.1C39.89,58.48,39.66,58.2,39.46,57.96z M42.82,60.76
			c0.05-0.31,0.09-0.61,0.12-0.91c0.03-0.3,0.07-0.6,0.09-0.91l-1.26,0.33c0.18,0.25,0.35,0.5,0.52,0.75
			C42.46,60.27,42.63,60.52,42.82,60.76z"/>
		<path class="st2" d="M38.31,62.03c0.02,0.31,0.05,0.61,0.08,0.92c-0.08-0.01-0.17-0.01-0.27-0.01c-0.1,0-0.2,0-0.32,0
			c-0.12,0.01-0.23,0.01-0.32,0.02c-0.1,0.01-0.18,0.02-0.26,0.04c0.01-0.31,0.01-0.62,0-0.93c0-0.31-0.01-0.66-0.03-1.05
			l-0.04-0.97c-0.01-0.27-0.02-0.53-0.04-0.79c-0.01-0.25-0.03-0.47-0.04-0.66c-0.27,0.01-0.54,0.03-0.81,0.06
			c-0.27,0.03-0.54,0.06-0.82,0.11c0.01-0.05,0.01-0.1,0.02-0.14c0-0.04,0-0.1,0-0.18c0-0.08-0.01-0.14-0.02-0.18
			c-0.01-0.04-0.02-0.08-0.03-0.11c0.13,0,0.29,0,0.48-0.01c0.19-0.01,0.45-0.02,0.78-0.03c0.29-0.01,0.53-0.02,0.71-0.03
			c0.18-0.01,0.32-0.01,0.42-0.02c0.11,0,0.19-0.01,0.24-0.01c0.05,0,0.1-0.01,0.14-0.02c-0.01,0.3-0.01,0.6,0,0.91
			c0,0.31,0.02,0.66,0.03,1.05l0.04,0.97C38.26,61.37,38.28,61.72,38.31,62.03z"/>
		<path class="st2" d="M34.07,58.01c-0.11,0.3-0.21,0.52-0.3,0.68c-0.08,0.15-0.16,0.25-0.23,0.29c-0.07,0.04-0.15,0.05-0.25,0.04
			c-0.06-0.01-0.11-0.02-0.17-0.05c-0.06-0.03-0.11-0.06-0.15-0.1c-0.05-0.04-0.08-0.09-0.11-0.15c-0.02-0.06-0.03-0.13-0.03-0.2
			c0-0.04,0.02-0.09,0.05-0.15c0.03-0.05,0.09-0.14,0.19-0.26c0.1-0.12,0.25-0.29,0.45-0.51c0.2-0.22,0.47-0.52,0.81-0.9l0.17,0.09
			C34.33,57.31,34.18,57.72,34.07,58.01z"/>
		<path class="st2" d="M26.38,56.58c0.06-0.09,0.11-0.18,0.16-0.27c0.43-0.05,0.92,0.02,1.47,0.22c0.39,0.14,0.72,0.32,0.99,0.54
			c0.27,0.22,0.47,0.47,0.61,0.75c0.14,0.28,0.22,0.57,0.23,0.89c0.01,0.31-0.04,0.63-0.15,0.95c-0.17,0.47-0.38,0.84-0.65,1.11
			c-0.26,0.27-0.55,0.47-0.87,0.58c-0.32,0.12-0.66,0.16-1.01,0.14c-0.36-0.02-0.71-0.1-1.07-0.23c-0.12-0.04-0.24-0.1-0.36-0.16
			c-0.12-0.06-0.24-0.13-0.35-0.21c-0.11-0.07-0.21-0.15-0.31-0.23c-0.09-0.08-0.17-0.16-0.23-0.23c0.09-0.1,0.16-0.2,0.23-0.3
			c0.07-0.11,0.12-0.21,0.18-0.33l0.09,0.03c0.09,0.28,0.21,0.49,0.36,0.65c0.15,0.16,0.34,0.28,0.58,0.37
			c0.18,0.07,0.37,0.09,0.59,0.07c0.21-0.01,0.42-0.08,0.63-0.19c0.21-0.11,0.4-0.28,0.59-0.51c0.18-0.22,0.34-0.52,0.47-0.87
			c0.12-0.35,0.18-0.66,0.18-0.94c-0.01-0.28-0.06-0.52-0.15-0.73c-0.09-0.21-0.22-0.38-0.39-0.52c-0.16-0.14-0.34-0.25-0.54-0.32
			c-0.11-0.04-0.22-0.07-0.34-0.08c-0.12-0.02-0.24-0.02-0.37-0.02c-0.12,0-0.24,0.02-0.36,0.05c-0.12,0.03-0.23,0.07-0.33,0.12
			l-0.07-0.09C26.26,56.76,26.32,56.67,26.38,56.58z"/>
		<path class="st2" d="M24.08,57.66c-0.2,0.29-0.45,0.52-0.73,0.7c-0.29,0.18-0.59,0.29-0.92,0.35c-0.33,0.05-0.67,0.04-1.02-0.05
			c-0.35-0.09-0.7-0.25-1.04-0.49c-0.31-0.22-0.57-0.47-0.78-0.74c-0.21-0.28-0.35-0.57-0.43-0.88c-0.08-0.31-0.08-0.64-0.01-0.98
			c0.07-0.34,0.23-0.69,0.48-1.04c0.21-0.29,0.45-0.53,0.74-0.7c0.29-0.17,0.6-0.29,0.93-0.34c0.33-0.05,0.67-0.03,1.02,0.06
			c0.35,0.09,0.68,0.25,1.01,0.48c0.31,0.22,0.57,0.46,0.79,0.73c0.22,0.27,0.37,0.56,0.45,0.87c0.08,0.31,0.09,0.64,0.02,0.98
			C24.5,56.93,24.33,57.29,24.08,57.66z M20.49,55.31c-0.18,0.25-0.31,0.5-0.39,0.75c-0.08,0.24-0.11,0.48-0.1,0.69
			c0.01,0.22,0.07,0.42,0.17,0.61c0.1,0.19,0.25,0.35,0.44,0.48c0.2,0.14,0.41,0.22,0.64,0.23c0.23,0.02,0.45-0.02,0.67-0.11
			c0.22-0.09,0.44-0.22,0.65-0.4c0.21-0.18,0.41-0.39,0.58-0.64c0.22-0.31,0.37-0.6,0.46-0.86c0.09-0.26,0.12-0.5,0.1-0.71
			c-0.02-0.21-0.08-0.4-0.19-0.56c-0.11-0.16-0.24-0.3-0.41-0.42c-0.18-0.12-0.37-0.2-0.58-0.24c-0.21-0.04-0.43-0.02-0.66,0.04
			c-0.23,0.07-0.46,0.19-0.69,0.38C20.94,54.74,20.71,54.99,20.49,55.31z"/>
		<path class="st2" d="M17.08,54.03c-0.23,0.21-0.45,0.42-0.67,0.64c-0.05-0.07-0.1-0.14-0.16-0.22c-0.06-0.08-0.12-0.16-0.2-0.25
			c-0.08-0.09-0.15-0.17-0.22-0.24c-0.07-0.07-0.13-0.13-0.19-0.18c0.25-0.19,0.49-0.38,0.73-0.58c0.24-0.19,0.51-0.42,0.8-0.68
			l0.73-0.64c0.2-0.18,0.4-0.35,0.59-0.52c0.19-0.17,0.35-0.31,0.49-0.44c-0.18-0.2-0.36-0.4-0.55-0.6
			c-0.19-0.2-0.39-0.39-0.59-0.57c0.05-0.03,0.09-0.05,0.12-0.08c0.04-0.02,0.08-0.06,0.14-0.11c0.06-0.05,0.1-0.09,0.13-0.12
			c0.03-0.03,0.05-0.06,0.07-0.09c0.08,0.1,0.18,0.22,0.3,0.37c0.12,0.14,0.29,0.34,0.51,0.59c0.19,0.22,0.35,0.4,0.47,0.53
			c0.12,0.13,0.21,0.24,0.28,0.32c0.07,0.08,0.12,0.14,0.16,0.18c0.04,0.04,0.07,0.07,0.1,0.1c-0.24,0.18-0.47,0.37-0.71,0.56
			c-0.24,0.19-0.51,0.42-0.8,0.68l-0.73,0.64C17.57,53.58,17.31,53.82,17.08,54.03z"/>
		<path class="st2" d="M15.4,49.67c-0.31,0.16-0.64,0.25-0.97,0.28c-0.34,0.03-0.66-0.01-0.98-0.12c-0.32-0.1-0.61-0.28-0.89-0.52
			c-0.27-0.24-0.51-0.54-0.7-0.91c-0.17-0.34-0.29-0.68-0.35-1.02c-0.06-0.34-0.05-0.67,0.03-0.98c0.08-0.31,0.22-0.6,0.45-0.88
			c0.22-0.27,0.52-0.51,0.9-0.7c0.32-0.16,0.65-0.26,0.98-0.28c0.34-0.02,0.66,0.02,0.98,0.13c0.32,0.11,0.61,0.28,0.87,0.52
			c0.27,0.24,0.49,0.53,0.68,0.89c0.17,0.33,0.29,0.67,0.36,1.01c0.07,0.34,0.07,0.66,0,0.98c-0.07,0.31-0.22,0.61-0.44,0.88
			C16.11,49.22,15.8,49.46,15.4,49.67z M13.3,45.93c-0.28,0.14-0.5,0.3-0.69,0.48c-0.18,0.18-0.32,0.37-0.41,0.57
			c-0.09,0.2-0.13,0.41-0.13,0.62c0.01,0.21,0.06,0.42,0.17,0.63c0.11,0.22,0.26,0.38,0.45,0.5c0.19,0.12,0.41,0.19,0.65,0.22
			c0.24,0.03,0.49,0.01,0.77-0.05c0.27-0.06,0.54-0.16,0.81-0.3c0.34-0.17,0.61-0.36,0.8-0.55c0.2-0.19,0.33-0.39,0.41-0.58
			c0.08-0.2,0.11-0.39,0.09-0.58c-0.02-0.19-0.07-0.38-0.17-0.56c-0.1-0.19-0.23-0.35-0.4-0.48c-0.17-0.13-0.37-0.22-0.6-0.26
			c-0.23-0.04-0.49-0.04-0.79,0.01C13.97,45.64,13.65,45.75,13.3,45.93z"/>
		<path class="st2" d="M12.31,41.75l0.29-0.06c0.39-0.09,0.73-0.17,1.03-0.24c0.3-0.08,0.59-0.15,0.87-0.24
			c0.01,0.08,0.02,0.17,0.04,0.26c0.02,0.09,0.04,0.2,0.07,0.31s0.05,0.22,0.07,0.31c0.02,0.09,0.04,0.18,0.07,0.26
			c-0.29,0.04-0.59,0.1-0.89,0.15c-0.3,0.06-0.65,0.13-1.03,0.21l-0.95,0.21c-0.39,0.09-0.73,0.17-1.03,0.24
			c-0.3,0.08-0.6,0.16-0.89,0.24c-0.01-0.08-0.02-0.17-0.03-0.26c-0.01-0.09-0.03-0.2-0.06-0.32C9.83,42.7,9.8,42.56,9.75,42.4
			c-0.05-0.16-0.1-0.36-0.15-0.59c-0.04-0.18-0.07-0.33-0.09-0.46c-0.02-0.13-0.03-0.24-0.03-0.33c0-0.1,0.01-0.18,0.02-0.25
			c0.02-0.07,0.04-0.15,0.07-0.22c0.07-0.16,0.17-0.3,0.31-0.42c0.13-0.11,0.3-0.2,0.51-0.24c0.34-0.07,0.64-0.04,0.89,0.1
			c0.26,0.14,0.47,0.37,0.63,0.7c0.35-0.31,0.69-0.64,1.03-0.98c0.34-0.34,0.67-0.68,1-1.03c0.01,0.11,0.03,0.21,0.05,0.32
			c0.02,0.1,0.05,0.21,0.07,0.31c0.02,0.11,0.05,0.21,0.07,0.32c0.02,0.1,0.05,0.21,0.08,0.31l-1.92,1.73L12.31,41.75z M10.78,40.93
			c-0.2,0.05-0.36,0.1-0.47,0.17c-0.11,0.07-0.19,0.15-0.23,0.25c-0.04,0.1-0.06,0.22-0.05,0.36c0.01,0.14,0.04,0.31,0.08,0.5
			c0.64-0.13,1.27-0.26,1.9-0.4c0-0.03,0-0.06-0.01-0.08c0-0.03-0.01-0.05-0.01-0.07c-0.07-0.31-0.2-0.52-0.4-0.65
			C11.39,40.88,11.12,40.86,10.78,40.93z"/>
		<path class="st2" d="M13.92,33.39c-0.01,0.11-0.02,0.22-0.02,0.33c0,0.1,0,0.2,0,0.3c0,0.1,0,0.2,0,0.3c0,0.1,0,0.2,0.01,0.3
			c-0.23,0.07-0.47,0.15-0.72,0.23c-0.24,0.08-0.49,0.16-0.73,0.25c-0.01,0.15-0.01,0.3-0.02,0.46c0,0.15-0.01,0.31-0.01,0.46
			c0,0.12,0,0.25,0,0.37c0,0.12,0,0.25,0.01,0.37c0.24,0.1,0.48,0.19,0.73,0.28c0.24,0.08,0.48,0.16,0.71,0.23
			c-0.01,0.06-0.02,0.11-0.02,0.17c0,0.05,0,0.11,0,0.17c0,0.06,0,0.11,0,0.17c0,0.06,0,0.12,0.01,0.19
			c-0.12-0.06-0.29-0.14-0.51-0.24c-0.22-0.1-0.46-0.21-0.74-0.33c-0.27-0.12-0.57-0.25-0.88-0.38c-0.32-0.14-0.63-0.27-0.96-0.41
			c-0.32-0.14-0.64-0.27-0.95-0.4c-0.31-0.13-0.6-0.25-0.87-0.36c0.01-0.05,0.02-0.09,0.03-0.14c0.01-0.04,0.01-0.09,0.01-0.14
			c0-0.05,0-0.09-0.01-0.14c-0.01-0.04-0.01-0.09-0.02-0.14c0.41-0.15,0.84-0.3,1.31-0.47c0.46-0.17,0.92-0.34,1.37-0.51
			c0.45-0.17,0.87-0.33,1.28-0.5C13.3,33.68,13.64,33.53,13.92,33.39z M10.32,35.87c0.28,0.13,0.56,0.25,0.84,0.36
			c0.28,0.11,0.56,0.23,0.85,0.33l0.02-1.31c-0.29,0.1-0.58,0.2-0.86,0.3S10.6,35.76,10.32,35.87z"/>
		<path class="st2" d="M11.3,31.33c-0.38-0.11-0.72-0.2-1.02-0.27c-0.3-0.07-0.6-0.14-0.9-0.21c0.03-0.08,0.06-0.16,0.1-0.25
			c0.03-0.09,0.06-0.19,0.1-0.31c0.04-0.15,0.08-0.32,0.12-0.51c0.04-0.19,0.1-0.44,0.19-0.74c0.11-0.39,0.25-0.74,0.41-1.05
			c0.16-0.3,0.36-0.55,0.59-0.74c0.24-0.19,0.51-0.3,0.84-0.35c0.32-0.05,0.7-0.01,1.14,0.11c0.38,0.11,0.71,0.27,0.98,0.48
			c0.27,0.21,0.49,0.46,0.64,0.74c0.16,0.28,0.25,0.58,0.29,0.9c0.03,0.32,0.01,0.64-0.08,0.97c-0.1,0.34-0.18,0.64-0.25,0.88
			c-0.07,0.24-0.13,0.45-0.18,0.63c-0.03,0.11-0.06,0.22-0.09,0.31c-0.03,0.09-0.04,0.18-0.06,0.26c-0.28-0.1-0.57-0.19-0.86-0.28
			c-0.29-0.09-0.63-0.19-1.01-0.3L11.3,31.33z M13.02,30.71l0.41,0.12c0.13,0.04,0.26,0.07,0.37,0.1c0.11,0.03,0.18,0.05,0.21,0.06
			c0.02-0.07,0.05-0.15,0.08-0.24c0.03-0.1,0.07-0.21,0.11-0.36c0.14-0.52,0.08-0.98-0.19-1.38s-0.76-0.7-1.48-0.9
			c-0.28-0.08-0.55-0.11-0.8-0.1c-0.25,0.01-0.47,0.07-0.66,0.16c-0.2,0.09-0.36,0.23-0.5,0.39c-0.14,0.17-0.24,0.37-0.31,0.61
			c-0.05,0.17-0.08,0.3-0.1,0.41c-0.02,0.11-0.04,0.21-0.06,0.32c0.03,0.01,0.1,0.03,0.21,0.06c0.11,0.03,0.23,0.07,0.37,0.11
			l0.41,0.12l0.34,0.1l1.23,0.34L13.02,30.71z"/>
		<path class="st2" d="M13.69,25.36c-0.3-0.19-0.55-0.42-0.74-0.69c-0.19-0.28-0.33-0.58-0.4-0.9c-0.07-0.33-0.08-0.67-0.01-1.03
			c0.07-0.36,0.21-0.71,0.43-1.06c0.2-0.32,0.43-0.6,0.7-0.82c0.26-0.22,0.55-0.38,0.85-0.48s0.63-0.12,0.98-0.07
			c0.35,0.05,0.7,0.19,1.07,0.42c0.3,0.19,0.55,0.42,0.74,0.7c0.19,0.28,0.32,0.58,0.39,0.91c0.07,0.33,0.07,0.67,0,1.02
			c-0.07,0.35-0.21,0.7-0.42,1.04c-0.2,0.32-0.43,0.6-0.68,0.83c-0.25,0.23-0.53,0.4-0.84,0.5c-0.31,0.1-0.63,0.12-0.98,0.07
			C14.44,25.74,14.07,25.6,13.69,25.36z M15.82,21.64c-0.26-0.16-0.52-0.28-0.77-0.34c-0.25-0.07-0.48-0.09-0.7-0.06
			c-0.22,0.02-0.42,0.09-0.6,0.21c-0.18,0.11-0.33,0.27-0.45,0.46c-0.13,0.21-0.19,0.42-0.2,0.65c0,0.23,0.05,0.45,0.14,0.67
			c0.1,0.22,0.24,0.43,0.44,0.63c0.19,0.2,0.42,0.38,0.68,0.54c0.32,0.2,0.62,0.34,0.88,0.41c0.27,0.07,0.5,0.09,0.71,0.06
			c0.21-0.03,0.39-0.11,0.55-0.22c0.16-0.12,0.29-0.26,0.39-0.43c0.11-0.18,0.18-0.38,0.21-0.59c0.03-0.21,0-0.43-0.08-0.65
			c-0.08-0.22-0.22-0.45-0.42-0.67C16.42,22.07,16.16,21.85,15.82,21.64z"/>
	</g>
</g>
</svg>
