<?xml version="1.0" encoding="utf-8"?>
<!-- Generator: Adobe Illustrator 27.4.1, SVG Export Plug-In . SVG Version: 6.00 Build 0)  -->
<svg version="1.1" id="Layer_1" xmlns="http://www.w3.org/2000/svg" xmlns:xlink="http://www.w3.org/1999/xlink" x="0px" y="0px"
	 viewBox="0 0 252 144" style="enable-background:new 0 0 252 144;" xml:space="preserve">
<style type="text/css">
	.st0{clip-path:url(#SVGID_00000039834809812751822910000000313843740998585007_);}
</style>
<g>
	<g>
		<path d="M234.86,23.09c-0.13,0.08-0.3,0.11-0.46,0.1c-1.03-0.01-2.04,0-3.07,0.3c-0.74,0.22-1.58,0.14-2.44,0.19
			c-0.97-0.09-1.99-0.21-3.02-0.27c-0.34-0.02-0.69,0.03-0.63-0.42c0.04-0.28,0.22-0.63,0.44-0.76c0.32-0.19,0.75-0.32,1.12-0.31
			c2.69,0.14,5.37,0.32,8.05,0.5c0.09,0.01,0.24,0.21,0.24,0.33C235.11,22.88,234.97,23.03,234.86,23.09 M232.07,27.9
			c-0.39,0.03-0.78,0.01-1.16,0.01c0,0.01,0,0.01,0,0.02c-0.39,0-0.78,0.01-1.16-0.01c-0.12-0.01-0.24-0.1-0.36-0.16
			c0.06-0.04,0.12-0.12,0.19-0.13c0.81-0.15,1.54-0.87,2.44-0.32c0.19,0.12,0.37,0.26,0.56,0.39
			C232.4,27.77,232.24,27.89,232.07,27.9 M229.95,34.68c-0.29,0.03-0.59,0.02-0.89,0.01c-0.06,0-0.12-0.08-0.18-0.13
			c0.09-0.08,0.15-0.21,0.26-0.25c0.13-0.05,0.29-0.04,0.44-0.05c0.15,0.01,0.3,0.02,0.44,0.05c0.07,0.01,0.12,0.08,0.18,0.13
			C230.12,34.52,230.04,34.67,229.95,34.68 M225.74,27.18C225.79,27.16,225.87,27.19,225.74,27.18 M227.72,27.83
			c-0.16,0.16-0.39,0.34-0.6,0.35c-0.53,0.02-1.06-0.04-1.58-0.11c-0.09-0.01-0.23-0.29-0.19-0.39c0.07-0.19,0.24-0.35,0.39-0.5
			c0,0,0.01,0,0.01,0c0.6,0.12,0.99,0.19,1.38,0.26C227.85,27.59,227.92,27.64,227.72,27.83 M232.02,18.76
			c0.16-0.13,0.37-0.23,0.57-0.3c0.14-0.05,0.31-0.02,0.46-0.03c0.15-0.01,0.31-0.02,0.53-0.04c0.16,0.01,0.4,0.01,0.62,0.07
			c0.1,0.03,0.24,0.2,0.22,0.29c-0.02,0.13-0.14,0.33-0.24,0.35c-0.52,0.09-1.06,0.17-1.59,0.18
			C232.22,19.29,231.84,18.91,232.02,18.76 M222.66,49.66c-0.01,0.03-0.12,0.08-0.14,0.07c-0.06-0.04-0.15-0.11-0.15-0.18
			c-0.03-0.32-0.11-0.66-0.02-0.94c0.37-1.21,0.61-2.42,0.26-3.69c-0.02-0.08,0.17-0.25,0.29-0.33c0.19-0.13,0.29-0.04,0.29,0.19
			c0,0.39,0,0.79,0,1C223.49,47.27,222.86,48.43,222.66,49.66 M223.04,42.64c0.04,0.13,0.09,0.26,0.12,0.36c0,0.1,0.02,0.18,0,0.25
			c-0.05,0.11-0.13,0.21-0.2,0.32c-0.13-0.16-0.39-0.35-0.36-0.47C222.63,42.92,222.88,42.79,223.04,42.64 M216.63,35.56
			c-0.75,0.23-1.47,0.66-2.3,0.52c-0.08-0.01-0.16,0.02-0.24,0.01c-1.49-0.18-2.97-0.44-4.47,0.03c-0.34,0.11-0.8-0.02-1.17-0.14
			c-0.55-0.19-1.05-0.21-1.63-0.04c-0.52,0.16-1.1,0.08-1.65,0.17c-0.94,0.15-1.81-0.33-2.81-0.05c-0.97,0.26-2.06,0.11-3.1,0.1
			c-0.96,0-1.92-0.08-2.87-0.05c-1.43,0.05-2.85,0.2-4.28,0.25c-0.61,0.02-1.24-0.03-1.85-0.12c-1.29-0.18-2.54-0.22-3.72,0.45
			c-0.45,0.25-0.86,0.21-1.36,0.06c-0.91-0.27-1.86-0.42-2.79-0.55c-0.46-0.07-0.95-0.03-1.42,0.03c-0.47,0.06-0.92,0.29-1.38,0.3
			c-1.02,0.03-2.05-0.06-3.07-0.03c-1.03,0.03-2.06,0.15-3.1,0.2c-1.11,0.06-2.22-0.03-3.33,0.27c-0.75,0.2-1.59,0.1-2.38,0.11
			c-2.15,0.02-4.31,0.06-6.46,0.01c-0.68-0.02-1.22,0.23-1.78,0.49c-0.2-0.36-0.55-0.45-0.93-0.45c-1.04-0.01-2.07-0.03-3.11-0.02
			c-2.71,0.01-5.43,0.06-8.14,0.05c-0.95,0-1.91-0.11-2.86-0.16c-0.39-0.02-0.78-0.01-1.17-0.01c-2.22,0-4.44,0.33-6.67-0.13
			c-0.65-0.13-1.41-0.03-2.1-0.01c-0.75,0.02-1.38-0.23-2.07-0.31c-0.69-0.09-1.38-0.2-2.06-0.29c-0.24-0.03-0.54-0.16-0.7-0.06
			c-0.86,0.57-1.71,0.04-2.55,0c-0.94-0.04-1.85-0.37-2.82-0.12c-0.37,0.1-0.82,0.09-1.19-0.03c-1.01-0.34-1.99-0.25-3.04-0.17
			c-1.23,0.1-2.51-0.18-3.74-0.43c-1.17-0.24-2.29-0.34-3.5-0.31c-2.04,0.05-4.1,0.07-6.14-0.34c-1.08-0.22-2.24,0.1-3.29-0.42
			c-1.3,0.56-2.71,0.01-4.01,0.36c-1.64,0.43-3.3-0.31-4.94,0.18c-0.28,0.08-0.69-0.41-1.05-0.43c-1.56-0.08-3.13-0.58-4.68,0.11
			c-0.49,0.22-0.92-0.07-1.38-0.17c-0.44-0.1-0.93,0.03-1.38-0.03c-2.3-0.33-4.62-0.22-6.92-0.05c-0.86,0.06-1.66-0.04-2.49-0.11
			c0.14-0.16,0.26-0.37,0.43-0.4c0.47-0.08,0.95-0.09,1.43-0.08c3.75,0.12,7.5,0.1,11.24-0.26c0.16-0.01,0.32-0.03,0.47,0
			c2.85,0.54,5.74,0.22,8.6,0.21c1.9-0.01,3.8-0.03,5.7,0.02c1.83,0.06,3.67-0.04,5.51-0.02c0.79,0.01,1.61,0.05,2.36,0.28
			c0.71,0.21,1.4,0.24,2.12,0.26c2.21,0.07,4.43-0.02,6.62,0.41c0.23,0.05,0.48,0.05,0.72,0.04c3.2-0.1,6.36,0.45,9.54,0.58
			c0.64,0.02,1.27,0.13,1.9,0.2c0.48,0.05,0.96,0.16,1.43,0.13c1.75-0.1,3.48,0.02,5.22,0.09c1.76,0.08,3.52,0.04,5.27,0
			c0.94-0.02,1.88-0.23,2.82-0.23c0.95,0,1.9,0.18,2.85,0.22c0.96,0.04,1.92,0.05,2.88-0.03c2.78-0.23,5.55,0.13,8.33,0.06
			c2.79-0.07,5.59-0.04,8.38-0.07c0.95-0.01,1.92,0.04,2.74-0.64c0.14-0.11,0.46-0.08,0.66-0.01c1.24,0.4,2.48,0.43,3.76,0.22
			c0.7-0.11,1.43-0.05,2.15-0.01c1.35,0.08,2.72,0.4,4.04,0.25c1.36-0.16,2.66-0.11,3.99,0.1c0.23,0.04,0.49,0.08,0.71,0.01
			c1.87-0.6,3.81-0.28,5.71-0.36c1.27-0.05,2.53-0.14,3.8-0.33c1.57-0.23,3.19-0.22,4.78-0.22c3.04-0.01,6.07,0.08,9.1,0.07
			c1.27,0,2.54-0.18,3.82-0.24c0.3-0.01,0.63,0.05,0.91,0.18c0.17,0.08,0.29,0.34,0.34,0.54C216.89,35.3,216.74,35.53,216.63,35.56
			 M75.73,34.72c-0.79,0.03-1.6-0.02-2.37,0.12c-0.78,0.14-1.5,0.61-2.27,0.68c-0.76,0.06-1.56-0.22-2.34-0.31
			c-1.09-0.12-1.32-0.19-1.08-0.48c0.29-0.35,0.68-0.39,1.06-0.41c0.72-0.05,1.43-0.08,2.15-0.09c1.03-0.02,2.05,0.02,3.08-0.27
			c0.81-0.22,1.7-0.19,2.48,0.29C76.3,34.55,76.07,34.71,75.73,34.72 M68.67,29.95c-0.2,0.14-0.4,0.3-0.62,0.4
			c-0.09,0.04-0.26-0.09-0.4-0.15c0.08-0.08,0.16-0.21,0.25-0.22C68.16,29.95,68.41,29.95,68.67,29.95 M66.51,30.82
			c-0.23,0.2-0.53,0.43-0.8,0.44c-0.7,0.03-1.41-0.05-2.11-0.11c-0.23-0.02-0.62-0.19-0.68-0.1c-0.73,1.02-1.29,0.09-1.94-0.08
			c-0.3-0.08-0.68,0.11-1.02,0.17c0.79,0.8-0.06,0.55-0.39,0.57c-0.47,0.04-0.96,0.08-1.31-0.36c-0.42-0.54-0.97-0.52-1.5-0.24
			c-0.61,0.32-1.24,0.25-1.87,0.16c-0.08-0.01-0.21-0.22-0.2-0.31c0.03-0.14,0.14-0.31,0.26-0.37c0.21-0.1,0.45-0.18,0.68-0.19
			c1.28-0.02,2.56,0.04,3.83-0.04c0.91-0.06,1.86,0.24,2.73-0.26c-0.86-0.08-1.72-0.15-2.58-0.23c-0.16-0.01-0.31-0.04-0.47-0.08
			c-0.06-0.02-0.16-0.1-0.15-0.12c0.07-0.14,0.13-0.3,0.24-0.4c0.26-0.23,0.54-0.21,0.88-0.11c0.45,0.13,1.01,0.32,1.38,0.16
			C62.81,28.78,64.16,29,65.5,29c0.87,0,1.76,0.14,2.56-0.39c0.17-0.11,0.49-0.12,0.69-0.05c0.27,0.11,0.63,0.3,0.7,0.53
			c0.05,0.18-0.28,0.48-0.46,0.71c-0.04,0.05-0.15,0.06-0.22,0.08c0,0,0,0,0,0c-0.58-0.75-1.36-0.39-2.09-0.31
			c-0.04,0-0.09,0.11-0.09,0.17c0,0.08,0.02,0.16,0.05,0.23C66.82,30.29,66.77,30.6,66.51,30.82 M66.51,35.06
			c-0.52,0.19-1.03,0.45-1.56,0.52c-1.17,0.15-2.36,0.34-3.52,0.23c-0.68-0.07-1.26,0.28-1.84,0.18c-0.64-0.11-1.2-0.09-1.84,0.02
			c-1.17,0.2-2.38,0.18-3.58,0.22c-1.02,0.03-2.02-0.11-3.06,0.25c-0.67,0.23-1.56-0.21-2.3-0.08c-0.64,0.11-0.86-0.24-1.18-0.55
			c-0.1-0.1-0.13-0.28-0.19-0.42c0.14-0.05,0.28-0.14,0.42-0.14c1.67-0.01,2.86-0.01,4.53-0.01c0.32-0.01,0.39-0.06,0.49-0.14
			c1.59,0,3.22,0.19,4.77-0.05c1.98-0.3,3.96-0.3,5.94-0.51c0.97-0.1,1.88,0.13,2.82,0.16c0.06,0,0.15,0.09,0.17,0.15
			C66.61,34.93,66.56,35.04,66.51,35.06 M61.49,37.53c-0.39,0.04-0.78,0.07-1.16,0.1c-0.32-0.03-0.63-0.04-0.94-0.09
			c-0.2-0.03-0.5-0.07-0.35-0.4c0.05-0.12,0.25-0.25,0.36-0.24c0.69,0.07,1.37,0.18,2.05,0.29c0.09,0.02,0.16,0.16,0.24,0.24
			C61.63,37.46,61.56,37.52,61.49,37.53 M53.87,30.63c-0.04,0.14-0.05,0.3-0.13,0.4c-0.08,0.1-0.24,0.12-0.37,0.18
			c-0.04-0.12-0.13-0.24-0.12-0.35c0.01-0.14,0.09-0.29,0.18-0.4c0.08-0.1,0.2-0.16,0.31-0.24C53.78,30.36,53.82,30.5,53.87,30.63
			 M57.03,29.77c-0.26,0.04-0.46,0.1-0.66,0.08c-0.1-0.01-0.18-0.15-0.27-0.24c0.21-0.06,0.41-0.14,0.62-0.15
			C56.79,29.46,56.88,29.62,57.03,29.77 M72.27,29.15c-0.07,0.08-0.13,0.21-0.22,0.24c-0.14,0.05-0.3,0.02-0.55,0.03
			c-0.12-0.06-0.32-0.16-0.51-0.26c0.21-0.06,0.43-0.13,0.64-0.19c0.07-0.02,0.15,0,0.23,0.01c0.08,0.01,0.16,0.01,0.23,0.04
			C72.15,29.05,72.21,29.11,72.27,29.15 M120.3,31.12c-0.15,0.04-0.29,0.1-0.43,0.1c-0.14-0.01-0.28-0.1-0.41-0.15
			c0.15-0.03,0.3-0.1,0.44-0.09C120.03,30.99,120.17,31.07,120.3,31.12 M136.1,29.16c0.02,0.04-0.12,0.21-0.21,0.25
			c-0.13,0.05-0.3,0.03-0.44,0.03c-0.15-0.02-0.3-0.02-0.45-0.05c-0.07-0.02-0.13-0.08-0.18-0.14c-0.02-0.03,0.01-0.11,0.05-0.15
			C135.13,28.86,135.97,28.89,136.1,29.16 M151.51,29.73c-0.06,0.05-0.13,0.14-0.18,0.13c-0.22-0.03-0.44-0.09-0.66-0.14
			c0.04-0.05,0.07-0.12,0.12-0.13c0.15-0.04,0.3-0.06,0.45-0.09C151.32,29.57,151.42,29.65,151.51,29.73 M175.16,30.39
			c0.02,0.07,0,0.2-0.04,0.22c-1.13,0.47-2.26,0.36-3.4,0c-0.04-0.01-0.06-0.13-0.09-0.19c0.08-0.12,0.18-0.35,0.23-0.34
			c1.04,0.25,2.08,0.48,3.16,0.14C175.05,30.21,175.15,30.32,175.16,30.39 M178.5,31.97c-0.16,0.13-0.23,0.23-0.27,0.21
			c-0.21-0.06-0.43-0.11-0.6-0.23c-0.1-0.06-0.12-0.24-0.17-0.36c0.13-0.05,0.31-0.17,0.39-0.12
			C178.08,31.59,178.27,31.79,178.5,31.97 M184.37,29.95c-0.04,0.27-0.05,0.56-0.17,0.8c-0.23,0.49-0.94,0.48-1.31,0.04
			c-0.15-0.18-0.16-0.24,0.06-0.32C183.43,30.31,183.9,30.13,184.37,29.95 M194.03,29.94c0.29,0.17,0.47,0.38,0.18,0.7
			c-0.07,0.07-0.27,0.04-0.41,0.03c-0.02,0-0.08-0.13-0.06-0.17C193.83,30.31,193.93,30.13,194.03,29.94 M200.4,31.06
			c-0.11,0.07-0.21,0.16-0.33,0.19c-0.22,0.04-0.46,0.04-0.62,0.06c-0.22-0.01-0.38,0-0.52-0.04c-0.1-0.03-0.19-0.14-0.28-0.21
			c0.06-0.04,0.12-0.12,0.19-0.13c0.38-0.02,0.76-0.05,1.15-0.04C200.12,30.9,200.26,31,200.4,31.06 M200.1,30.38
			c-0.39,0.02-0.78,0-1.17-0.04c-0.1-0.01-0.19-0.15-0.29-0.23c0.06-0.05,0.12-0.12,0.19-0.13c0.23-0.03,0.47-0.04,0.62-0.05
			c0.24,0,0.4-0.03,0.55,0.01c0.14,0.03,0.27,0.13,0.4,0.2C200.3,30.22,200.2,30.38,200.1,30.38 M208.27,31.31
			c-0.16,0.12-0.33,0.24-0.49,0.36c-0.07-0.12-0.21-0.27-0.18-0.36c0.03-0.11,0.22-0.16,0.34-0.24
			C208.05,31.15,208.16,31.23,208.27,31.31 M211.91,31c-0.01,0.08-0.01,0.15-0.02,0.15c-0.21,0.02-0.44,0.09-0.64,0.04
			c-0.24-0.06-0.23-0.2,0.03-0.22C211.49,30.95,211.7,30.98,211.91,31 M43.96,28.13c-1.71-0.39-3.48-0.33-5.17,0.3
			c-0.68,0.26-1.19,0.22-1.64-0.39c-0.18-0.24-0.47-0.4-0.71-0.62c-0.05-0.04-0.08-0.17-0.05-0.21c0.03-0.06,0.14-0.1,0.21-0.1
			c1.12,0.02,2.26-0.11,3.34,0.1c2.63,0.49,5.25,0.23,7.88,0.19c0.62-0.01,1.24,0.08,1.86,0.08c0.54-0.01,1.1-0.15,1.63-0.11
			c0.65,0.05,1.26,0.06,1.88-0.17c0.36-0.14,0.78-0.18,1.18-0.17c1.3,0.05,2.53-0.24,3.73-0.67c0.51-0.18,0.87-0.15,1.34,0.07
			c0.7,0.34,1.27,0.02,1.59-0.62c0.37-0.75,0.45-0.22,0.66,0.09c0.13,0.19,0.35,0.43,0.53,0.43c0.68,0.01,1.35-0.06,2.03-0.12
			c0.03,0,0.11-0.33,0.05-0.39c-0.27-0.28-0.59-0.52-0.89-0.78c-0.05-0.05-0.08-0.13-0.12-0.19c0.15-0.05,0.29-0.13,0.44-0.14
			c0.64-0.04,1.01,0.43,1.4,0.82c0.36,0.36,0.74,0.55,1.26,0.56c0.63,0.01,1.26,0.1,1.88,0.19c0.61,0.09,1.21-0.17,1.86,0.09
			c0.44,0.18,1.18,0.07,1.58-0.2c0.54-0.37,0.79-0.28,1.17,0.13c0.13,0.13,0.46,0.15,0.68,0.1c0.42-0.1,0.77-0.82,1.25-0.08
			c0.54-0.25,1.07-0.03,1.6,0.04c2.69,0.34,5.41,0.26,8.1,0.24c2.15-0.02,4.32,0.24,6.45-0.25c1.34,0.2,2.68,0.28,4-0.16
			c1.33,0.43,2.66,0.19,3.98-0.05c1.76,0.51,3.6-0.05,5.37,0.39c0.08,0.02,0.16,0.04,0.24,0.04c2.39-0.04,4.79-0.04,7.18-0.13
			c0.78-0.03,1.52-0.12,2.32,0.03c1.4,0.26,2.84,0.34,4.27,0.48c0.24,0.03,0.49,0.07,0.72,0.01c1.01-0.27,2-0.44,3.04-0.07
			c0.31,0.11,0.75-0.19,1.14-0.23c0.69-0.08,1.36-0.49,2.09-0.18c2.13-0.35,4.25,0.27,6.39,0.03c0.62-0.07,1.28,0.06,1.77-0.5
			c0.26-0.29,0.56-0.05,0.86,0.03c1.15,0.3,2.28,0.72,3.49,0.14c0.33-0.16,0.79-0.13,1.18-0.09c1.25,0.11,2.49,0.35,3.74,0.39
			c1.83,0.06,3.61,0.49,5.44,0.49c1.76,0,3.52,0.14,5.26-0.02c1.76-0.17,3.49,0.11,5.21,0.25c1.17,0.09,2.33,0.16,3.5,0.15
			c1.01-0.01,2.02-0.04,3.03,0.13c0.78,0.13,1.6,0.16,2.39,0.08c1.9-0.2,3.8-0.07,5.69,0.01c0.48,0.02,0.96,0.04,1.44,0.01
			c2.3-0.13,4.6-0.02,6.88,0.27c1.08,0.14,2.03-0.41,3.06-0.3c1.02,0.11,2.04,0.33,3.06,0.33c0.54,0,1.07-0.01,1.62,0.05
			c0.54,0.06,1.1-0.04,1.65-0.1c0.31-0.03,0.65-0.25,0.92-0.18c1.69,0.45,3.29-0.23,4.93-0.29c1.16-0.04,2.3-0.1,3.45-0.17
			c0.54-0.03,1.06,0.01,1.59-0.18c0.28-0.1,0.6-0.12,0.9-0.11c0.95,0.05,1.9,0.11,2.85,0.21c0.62,0.07,1.21,0.32,1.86,0.01
			c0.25-0.12,0.65-0.05,0.94,0.04c1.65,0.55,3.3,0.31,4.96,0.08c0.77-0.1,1.55-0.09,2.33-0.06c0.13,0,0.33,0.33,0.35,0.52
			c0.02,0.2-0.08,0.48-0.23,0.61c-0.15,0.14-0.43,0.2-0.65,0.21c-1.2,0.02-2.4-0.01-3.6,0.01c-1.11,0.01-2.23-0.01-3.33,0.1
			c-1.01,0.1-2.05-0.31-3.03,0.2c-0.12,0.06-0.31-0.01-0.47-0.02c-1.33-0.1-2.65-0.01-3.98,0.18c-1.25,0.18-2.51,0.23-3.76,0.4
			c-0.57,0.08-1.08,0.01-1.64-0.12c-0.53-0.13-1.05,0.07-1.33,0.63c-1.06-0.1-2.06-0.57-3.18-0.44c-1.08,0.12-2.21,0.16-3.28-0.01
			c-1.14-0.18-2.1,0.44-3.17,0.46c-0.04-0.05-0.07-0.11-0.12-0.12c-1.53-0.36-3.07-0.8-4.64-0.49c-0.89,0.17-1.71,0.15-2.59-0.06
			c-0.76-0.19-1.61-0.32-2.36-0.16c-0.94,0.2-1.86,0.05-2.78,0.13c-1,0.08-2.01-0.01-3.01-0.13c-1.02-0.12-2.07-0.05-3.11-0.06
			c-1.12-0.01-2.24,0.01-3.35-0.04c-1.01-0.05-1.97-0.38-3.06-0.19c-0.87,0.16-1.85-0.29-2.78-0.44c-0.3-0.05-0.62,0.02-0.93,0.02
			c-2.23,0-4.46-0.01-6.69,0c-0.31,0-0.61,0.1-0.91,0.1c-0.48,0.01-1.02,0.14-1.42-0.04c-1.31-0.61-2.66-0.42-4.01-0.42
			c-2.87,0.01-5.75,0.03-8.62,0.09c-0.87,0.02-1.74,0.23-2.61,0.21c-0.69-0.01-1.37,0.22-2.1-0.13c-0.64-0.31-1.42-0.2-2.05,0.25
			c-0.16,0.11-0.3,0.41-0.27,0.59c0.04,0.17,0.3,0.41,0.48,0.42c0.3,0.02,0.61-0.15,0.92-0.18c0.36-0.04,0.68,0.16,0.65,0.5
			c-0.03,0.35-0.1,0.66,0.34,0.67c0.47,0,0.95-0.07,1.4-0.19c0.13-0.03,0.21-0.36,0.24-0.57c0.03-0.21-0.16-0.54,0.18-0.56
			c0.79-0.06,1.58-0.05,2.37-0.05c0.07,0,0.16,0.06,0.2,0.12c0.57,0.95,1.49,0.72,2.35,0.72c0.56,0,1.12,0.03,1.68,0
			c0.41-0.03,0.89,0.28,1.21-0.22c-0.38-0.07-0.76-0.13-1.15-0.2c-0.15-0.02-0.31-0.02-0.46-0.06c-0.07-0.02-0.12-0.1-0.18-0.15
			c0.06-0.04,0.12-0.12,0.18-0.12c1.19-0.03,2.38-0.06,3.57-0.07c0.35,0,0.37,0.04,0.33,0.29c-0.01,0.05-0.14,0.07-0.19,0.13
			c-0.34,0.42-0.26,0.79,0.2,0.82c1.2,0.07,2.39,0.15,3.59,0.16c1.6,0.01,3.19-0.1,4.79-0.06c1.57,0.05,3.14,0.18,4.69,0.36
			c2.19,0.26,4.37,0.61,6.58,0.23c0.31-0.05,0.68-0.15,0.95-0.05c1.29,0.5,2.65,0.26,3.97,0.4c1.34,0.13,2.71,0.07,4.07,0.06
			c1.35-0.01,2.71-0.05,4.06-0.06c0.31,0,0.62,0.07,0.93,0.13c0.07,0.01,0.16,0.08,0.17,0.14c0.01,0.07-0.05,0.19-0.1,0.21
			c-0.59,0.21-1.17,0.46-1.78,0.58c-0.46,0.09-0.96-0.02-1.43-0.01c-0.88,0.01-1.74-0.17-2.6-0.25c-0.83-0.07-1.72,0.51-2.54,0.43
			c-1.28-0.13-2.5,0.06-3.75,0.17c-0.92,0.08-1.89-0.2-2.83-0.38c-1.8-0.36-3.57-0.53-5.32,0.22c-0.14,0.06-0.33,0.12-0.45,0.07
			c-1.61-0.68-3.13,0.05-4.67,0.33c-0.35,0.06-0.5-0.04-0.79-0.2c-1.19-0.67-2.43-1.24-3.76-0.26c-0.16,0.12-0.55,0.17-0.65,0.07
			c-1.08-1.05-2.43-0.24-3.61-0.55c-0.06-0.02-0.27,0.19-0.26,0.27c0.04,0.33-0.27,0.5-0.36,0.36c-0.47-0.74-1.19-0.66-1.89-0.75
			c-1.97-0.28-3.99-0.25-5.94-0.57c-1.75-0.29-3.47-0.43-5.23-0.42c-0.24,0-0.49-0.04-0.72,0.02c-0.75,0.2-1.49,0.43-2.24,0.66
			c-0.55-0.46-0.58-1.33-1.33-1.62c-0.17-0.07-0.3-0.22-0.44-0.34c0.14-0.06,0.28-0.16,0.42-0.18c0.61-0.1,1.18-0.51,1.84-0.21
			c0.02,0.01,0.16-0.12,0.15-0.17c-0.03-0.14-0.07-0.35-0.16-0.39c-0.88-0.4-1.81-0.44-2.76-0.33c-0.7,0.08-1.45,0.22-2.12,0.07
			c-2.31-0.52-4.64-0.15-6.95-0.18c-0.78-0.01-1.55,0.04-2.32-0.12c-0.23-0.05-0.49-0.11-0.71-0.05c-0.94,0.25-1.86,0.08-2.8,0.01
			c-0.96-0.06-1.92-0.01-2.88-0.06c-0.55-0.02-1.12-0.05-1.63-0.24c-0.84-0.31-1.53,0.38-2.34,0.2c-0.69-0.15-1.48-0.44-2.1-0.25
			c-1.82,0.56-3.65,0.13-5.47,0.34c-0.71,0.08-1.43,0.03-2.15,0.04c-1.1,0.02-2.2,0-3.29-0.03c-1.12-0.03-2.2-0.62-3.3-0.29
			c-1.11,0.34-2.22,0.18-3.33,0.23c-0.32,0.01-0.65,0.09-0.95,0.02c-1.57-0.39-3.14-0.02-4.71,0c-1.52,0.01-3.03,0.02-4.55,0.03
			c-1.59,0.01-3.19,0.01-4.78,0.02c-0.4,0-0.84-0.05-1.18,0.11c-1,0.45-2.03,0.33-3.06,0.33c-2.16-0.01-4.32-0.1-6.47,0.01
			c-1.26,0.07-2.47,0.05-3.73-0.14c-1.39-0.21-2.84,0.03-4.27,0.1C45.82,28.49,44.91,28.35,43.96,28.13 M46.22,35.63
			c-0.42,0.1-0.78,0.55-1.27,0.28c-0.12-0.07-0.26-0.17-0.31-0.3c-0.03-0.06,0.08-0.27,0.16-0.29c0.21-0.06,0.45-0.07,0.62-0.09
			c0.29,0.02,0.52,0.01,0.74,0.05c0.09,0.01,0.16,0.13,0.24,0.2C46.33,35.54,46.28,35.61,46.22,35.63 M41.53,35.82
			c-0.13,0.07-0.3,0.06-0.45,0.08c-0.69-0.22-1.35-0.26-2.08-0.06c-0.4,0.11-0.9-0.13-1.35-0.22c-0.07-0.01-0.12-0.08-0.18-0.13
			c0.08-0.07,0.17-0.19,0.25-0.19c1.33-0.03,2.67-0.04,4-0.04c0.12,0,0.23,0.12,0.35,0.18C41.89,35.57,41.73,35.72,41.53,35.82
			 M35.79,36.21c-0.19-0.26-0.41-0.43-0.39-0.56c0.06-0.38,0.4-0.42,0.69-0.34c0.16,0.04,0.27,0.25,0.41,0.38
			C36.29,35.85,36.07,36,35.79,36.21 M134.5,24.71c0.28,0.05,0.56,0.14,0.83,0.23c0.02,0.01,0,0.14,0,0.21
			c-0.1,0.1-0.25,0.31-0.29,0.29c-0.26-0.11-0.49-0.28-0.72-0.44C134.31,24.99,134.46,24.71,134.5,24.71 M34.89,17.99
			c-0.07-0.13-0.11-0.3-0.09-0.44c0.02-0.14,0.12-0.34,0.23-0.37c0.37-0.11,0.76-0.15,1.01-0.2c0.29,0.05,0.45,0.07,0.6,0.1
			c0.07,0.02,0.14,0.08,0.21,0.12c-0.06,0.06-0.11,0.15-0.17,0.16c-0.48,0.1-0.86,0.35-1.19,0.71
			C35.29,18.27,35.03,18.24,34.89,17.99 M38.2,16.99c0.46-0.03,0.93-0.01,1.4-0.01c1.36-0.08,1.84,0.06,1.53,0.31
			c-0.43,0.35-0.92,0.41-1.5,0.29c-0.29-0.06-0.68,0.26-1.01,0.45c-0.27,0.15-0.43,0.05-0.54-0.17c-0.1-0.21-0.19-0.43-0.23-0.65
			C37.85,17.15,38.07,17,38.2,16.99 M34.78,67.52c0.12,0.01,0.28,0.13,0.32,0.24c0.09,0.28,0.13,0.59,0.18,0.86
			c-0.06,0.25-0.1,0.47-0.17,0.68c-0.02,0.07-0.1,0.12-0.15,0.17c-0.05-0.06-0.13-0.11-0.14-0.17c-0.11-0.51-0.23-1.03-0.31-1.55
			C34.5,67.68,34.69,67.51,34.78,67.52 M33.48,17.4c-0.23,0.05-0.53-0.02-0.69,0.1c-0.87,0.62-1.65,0.03-2.46-0.13
			c-0.06-0.01-0.12-0.11-0.13-0.18c-0.01-0.03,0.1-0.12,0.15-0.12c0.62-0.06,1.25-0.1,1.88-0.15c0,0.02,0,0.03,0,0.05
			c0.4,0,0.79-0.03,1.19,0.01c0.17,0.02,0.33,0.16,0.49,0.25C33.76,17.29,33.63,17.37,33.48,17.4 M33.67,62.88
			c-0.03,0.1-0.12,0.19-0.19,0.28c-0.05-0.05-0.13-0.1-0.16-0.16c-0.46-0.76-0.64-1.57-0.4-2.45c0.02-0.06,0.07-0.12,0.1-0.18
			c0.13,0.08,0.33,0.13,0.37,0.24c0.18,0.58,0.31,1.18,0.36,1.41C33.7,62.57,33.71,62.73,33.67,62.88 M32.7,53.73
			c-0.1-0.04-0.14-0.24-0.2-0.36c0.1-0.09,0.21-0.19,0.31-0.28c0.09,0.17,0.18,0.34,0.28,0.51C32.95,53.65,32.79,53.77,32.7,53.73
			 M33.09,78.63c0.17,0.25,0.48,0.65,0.4,0.79c-0.33,0.56,0.01,1.39-0.7,1.77c-0.14-0.41-0.3-0.81-0.38-1.23
			c-0.07-0.37-0.04-0.76,0-1.13c0.01-0.12,0.17-0.27,0.29-0.31C32.81,78.48,33.02,78.54,33.09,78.63 M33.23,74.11
			c0.01,0.36,0.02,0.72,0.01,1.08c-0.02,0.5,0.21,1.04-0.26,1.46c-0.04-0.53-0.11-1.06-0.13-1.6
			C32.84,74.68,32.86,74.31,33.23,74.11 M32.75,81.31c0,0.34,0,0.69-0.02,1.03c0,0.06-0.1,0.11-0.15,0.17
			c-0.05-0.05-0.13-0.1-0.16-0.16C32.19,81.88,32.28,81.52,32.75,81.31 M34.09,84.98c0.24,0,0.23,1.06-0.03,1.28
			c-0.03,0.02-0.16-0.02-0.2-0.07c-0.19-0.22-0.33-0.54-0.63-0.09c-0.36,0.54-0.54,1.11-0.54,1.77c0,0.21-0.15,0.43-0.28,0.61
			c-0.06,0.09-0.24,0.1-0.36,0.12c-0.03,0-0.11-0.15-0.1-0.17c0.57-0.74,0.03-1.62,0.32-2.44c0.27-0.75,0.11-1.65,0.15-2.57
			C33.07,83.96,33.07,84.96,34.09,84.98 M34.39,81.45c0.09,0.15,0.21,0.32,0.19,0.34c-0.12,0.12-0.28,0.22-0.43,0.31
			c-0.02,0.01-0.15-0.13-0.14-0.14C34.13,81.79,34.25,81.63,34.39,81.45 M33.18,100.1c-0.02,0.06-0.1,0.1-0.15,0.14
			c-0.07-0.2-0.17-0.4-0.19-0.6c-0.01-0.11,0.14-0.23,0.22-0.35c0.05,0.06,0.1,0.11,0.13,0.18c0.03,0.06,0.04,0.14,0.07,0.21
			C33.23,99.82,33.22,99.96,33.18,100.1 M32.71,90.91c-0.27,0.53-0.36,0.99-0.12,1.58c0.14,0.32,0.09,0.8-0.04,1.14
			c-0.28,0.78-0.37,1.53-0.11,2.34c0.08,0.26,0.04,0.63-0.09,0.88c-0.44,0.89-0.43,1.84-0.56,2.79c-0.25,1.81-0.35,3.63-0.81,5.41
			c-0.14,0.53-0.09,1.11-0.16,1.66c-0.03,0.25,0.18,0.75-0.34,0.66c-0.23-0.04-0.38-0.46-0.58-0.7c0.12-0.09,0.31-0.16,0.33-0.27
			c0.21-1.31,0.4-2.62,0.58-3.93c0.02-0.12-0.13-0.37-0.22-0.38c-0.2-0.02-0.53,0.02-0.58,0.14c-0.67,1.47-0.99,2.95-0.15,4.44
			c-0.32-0.07-0.76,0.03-0.67,0.29c0.27,0.78-0.21,1.41-0.26,2.11c-0.04,0.71-0.32,1.43-0.25,2.12c0.14,1.34-0.55,2.66-0.04,4
			c0.07,0.19,0.05,0.47-0.03,0.67c-0.13,0.36-0.55,0.74-0.47,1.02c0.27,1.05-0.36,2.03-0.13,3.06c0.08,0.38,0.16,0.77,0.15,1.16
			c-0.08,2.47-0.19,4.94-0.31,7.41c-0.01,0.23-0.1,0.47-0.21,0.67c-0.07,0.12-0.25,0.17-0.38,0.25c-0.04-0.06-0.11-0.13-0.11-0.19
			c-0.02-1.58-0.74-3.11-0.31-4.72c-0.46-1.97,0.01-3.93,0.11-5.9c0.01-0.16,0.07-0.35,0.01-0.47c-0.64-1.43,0.03-2.83,0.2-4.2
			c0.16-1.35,0.38-2.7,0.32-4.04c-0.09-1.94,0.17-3.85,0.64-5.68c0.65-2.48,0.61-5.04,1.18-7.52c0.07-0.3,0-0.64,0.02-0.96
			c0.15-2.55-0.08-5.11,0.46-7.64c0.12-0.54,0.11-1.12,0.05-1.67c-0.25-2.31,0.11-4.6,0.08-6.9c-0.01-0.32-0.06-0.67,0.05-0.95
			c0.61-1.54,0.4-3.15,0.42-4.74c0.03-2.96,0.05-5.91,0.07-8.87c0-0.64,0.11-1.32-0.08-1.9c-0.32-1.01-0.34-2.05-0.22-3.02
			c0.19-1.53-0.27-2.98-0.2-4.49c0.08-1.59-0.04-3.19-0.06-4.79c-0.02-1.52-0.01-3.04-0.02-4.55c0-1.03,0.01-2.06,0.2-3.18
			c0.11,0.18,0.19,0.24,0.19,0.31c0.12,3.18,0.79,6.33,0.64,9.54c-0.04,0.79,0.1,1.59,0.15,2.38c0.09,1.34,0.16,2.69,0.25,4.03
			c0.05,0.71,0.1,1.43,0.23,2.14c0.12,0.62,0.51,1.23,0.5,1.83c-0.03,1.02-0.22,2.05-0.46,3.05c-0.2,0.82-0.18,1.56,0.13,2.34
			c0.2,0.51,0.5,1.09,0.43,1.59c-0.12,0.84,0.17,1.67-0.05,2.49c-0.37,1.39-0.06,2.86-0.61,4.24c-0.13,0.33-0.05,0.8,0.06,1.17
			c0.36,1.23-0.04,2.44-0.06,3.65c-0.01,0.62-0.29,1.24,0.06,1.85c0.27,0.45-0.1,0.76-0.26,1.09c-0.23,0.45-0.37,0.85-0.16,1.36
			c0.4,1.01,0.22,1.99,0,3.03c-0.31,1.52-0.66,3.07-0.3,4.66c0.16,0.7,0.02,1.42-0.25,2.11c-0.09,0.22,0.13,0.58,0.26,0.85
			c0.06,0.11,0.3,0.24,0.4,0.21c0.2-0.07,0.48-0.22,0.52-0.39c0.09-0.38,0.07-0.79,0.08-1.18c0.04-1.6,0.06-3.19,0.11-4.79
			c0.01-0.23,0.1-0.47,0.21-0.67c0.07-0.12,0.24-0.24,0.37-0.25c0.09,0,0.26,0.19,0.26,0.31C32.8,90.29,32.84,90.66,32.71,90.91
			 M30.32,110.55c-0.02,0.06-0.12,0.11-0.19,0.12c-0.03,0.01-0.09-0.08-0.12-0.14c-0.03-0.07-0.05-0.14-0.06-0.22
			c-0.01-0.15,0-0.31,0-0.46c0,0-0.04-0.47,0-0.69c0.02-0.12,0.09-0.3,0.23-0.32c0.16,0.15,0.39,0.26,0.48,0.44
			C30.93,109.79,30.45,110.13,30.32,110.55 M29.89,115.21c0,0.06,0.07,0.07,0.09,0.14c-0.03,0.46-0.06,0.93-0.1,1.39
			c-0.01,0.07-0.09,0.12-0.14,0.18c-0.08-0.07-0.23-0.14-0.23-0.21c-0.01-0.93-0.01-1.86,0-2.79c0-0.06,0.08-0.13,0.13-0.19
			c0.08,0.07,0.24,0.15,0.24,0.22C29.9,114.42,29.89,114.74,29.89,115.21 M29.84,123.43c0,0.07-0.02,0.2-0.13,0.2
			c-0.09-0.08-0.22-0.14-0.25-0.23c-0.05-0.14-0.05-0.31-0.05-0.47c0-0.71,0-1.19,0-1.9c0.02-0.1,0.11-0.13,0.11-0.23
			c0-0.87,0-1.73,0-2.6c0-0.06,0.06-0.12,0.09-0.18c0.11,0.1,0.23,0.2,0.31,0.32c0.09,0.13,0.22,0.3,0.19,0.42
			C29.74,120.3,29.91,121.87,29.84,123.43 M28.92,88.79c-0.01,0.19,0,0.27-0.02,0.35c-0.04,0.15-0.11,0.29-0.16,0.43
			c-0.06-0.12-0.13-0.23-0.18-0.35c-0.02-0.07-0.02-0.16,0-0.23c0.04-0.23,0.09-0.45,0.14-0.68C28.78,88.49,28.87,88.68,28.92,88.79
			 M29.75,72.29c-0.11,0.09-0.2,0.19-0.21,0.18c-0.15-0.13-0.29-0.26-0.42-0.41c-0.01-0.01,0.08-0.12,0.12-0.18
			C29.41,72.02,29.57,72.15,29.75,72.29 M30.35,41.46c0,0.22-0.09,0.44-0.17,0.75c-0.36-0.82-0.24-1.56,0.11-2.35
			C30.31,40.39,30.35,40.92,30.35,41.46 M22.98,21.64c-0.23-0.01-0.46-0.09-0.67-0.2c-0.12-0.06-0.18-0.24-0.27-0.36
			c0.07-0.03,0.13-0.09,0.19-0.09c0.94,0.02,1.92-0.09,2.83,0.1c0.87,0.18,1.7,0.24,2.58,0.15c1.49-0.14,2.99-0.22,4.49-0.3
			c0.23-0.01,0.5,0.02,0.67,0.14c0.16,0.11,0.27,0.36,0.31,0.57c0.02,0.09-0.15,0.32-0.25,0.34c-0.62,0.11-1.24,0.17-2.09,0.28
			C28.35,21.64,25.66,21.73,22.98,21.64 M25.3,30.99c-0.45,0.16-0.86,0.43-1.3,0.61c-0.36,0.15-0.55,0.02-0.62-0.39
			c-0.03-0.14-0.35-0.34-0.53-0.33c-0.79,0.03-1.62,0-2.36,0.22c-1.03,0.31-2.06,0.15-3.09,0.22c-0.24,0.02-0.53-0.3-0.76-0.5
			c-0.06-0.05-0.04-0.34,0.02-0.37c0.35-0.17,0.72-0.4,1.08-0.4c1.43,0,2.86-0.26,4.28,0.2c0.43,0.14,0.94,0.03,1.42,0.05
			c1.08,0.05,2.15,0.12,3.76,0.21C26.22,30.75,25.74,30.83,25.3,30.99 M61.74,14.25c0.11,0.05,0.17,0.24,0.21,0.38
			c0.01,0.04-0.09,0.12-0.14,0.18c-0.13-0.08-0.28-0.14-0.4-0.24c-0.05-0.04-0.06-0.14-0.09-0.22
			C61.47,14.31,61.64,14.21,61.74,14.25 M67.1,19.37c0.23-0.01,0.47,0.02,0.7,0.05c0.07,0.01,0.13,0.09,0.19,0.13
			c-0.04,0.04-0.07,0.1-0.11,0.13c-0.07,0.04-0.14,0.06-0.22,0.07c-0.15,0.02-0.31,0.02-0.55,0.03c-0.11-0.06-0.27-0.16-0.44-0.26
			C66.82,19.47,66.96,19.38,67.1,19.37 M72.27,19.42c0.5,0,1,0.04,1.5,0.07c0,0.07,0,0.14,0,0.21c-0.52,0.02-1.05,0.05-1.57,0.06
			c-0.07,0-0.13-0.07-0.2-0.11C72.09,19.57,72.18,19.42,72.27,19.42 M93.83,19.88c0.99,0.1,2.01-0.19,3.46,0.33
			c-1.48,0.01-2.48,0.22-3.49,0.03c-0.07-0.01-0.13-0.08-0.2-0.12C93.68,20.03,93.77,19.87,93.83,19.88 M115.33,19.91
			c0.11,0.16,0.23,0.31,0.33,0.48c0.01,0.03-0.08,0.12-0.13,0.18c-0.15-0.15-0.3-0.31-0.46-0.46
			C115.13,20.07,115.19,20.02,115.33,19.91 M153.34,20.37c0.6-0.15,1.21-0.28,1.82-0.41c0.05-0.01,0.15,0.08,0.17,0.15
			c0.02,0.05-0.02,0.14-0.06,0.19c-0.41,0.49-0.96,0.48-1.43,0.42c-0.17,0-0.26,0.01-0.33,0c-0.15-0.03-0.29-0.08-0.44-0.12
			C153.16,20.52,153.24,20.4,153.34,20.37 M214.64,16.83c-0.03,0.02-0.17-0.14-0.25-0.21c0.16-0.13,0.32-0.26,0.47-0.39
			c0.04,0.06,0.09,0.12,0.18,0.24C214.91,16.59,214.79,16.73,214.64,16.83 M187.33,17.31c-0.29,0.04-0.44-0.11-0.43-0.4
			c0-0.06,0.09-0.12,0.19-0.23c0.15,0.17,0.29,0.34,0.43,0.5C187.46,17.22,187.4,17.3,187.33,17.31 M185.7,17.53
			c-0.04,0.11-0.26,0.28-0.33,0.25c-0.42-0.17-0.83-0.37-1.23-0.6c-0.07-0.04-0.04-0.25-0.03-0.38c0-0.04,0.11-0.07,0.16-0.1
			c0.44,0.14,0.88,0.27,1.3,0.44C185.67,17.18,185.74,17.42,185.7,17.53 M175.73,17.04c-0.08-0.07-0.08-0.25-0.12-0.38
			c0.23-0.04,0.46-0.1,0.69-0.1c0.07,0,0.13,0.21,0.19,0.33C176.32,17.21,176.01,17.28,175.73,17.04 M165.5,16.7
			c-0.05-0.06-0.14-0.16-0.13-0.17c0.13-0.14,0.27-0.27,0.42-0.39c0.02-0.01,0.11,0.08,0.21,0.16
			C165.83,16.44,165.66,16.57,165.5,16.7 M154.2,15.88c-0.2,0-0.41-0.02-0.61-0.04c-0.01,0-0.02-0.08-0.03-0.13
			c0.2-0.03,0.4-0.07,0.61-0.08c0.06,0,0.12,0.07,0.18,0.11C154.3,15.79,154.25,15.88,154.2,15.88 M153.01,14.45
			c-0.12,0.02-0.27-0.07-0.41-0.12c0.14-0.1,0.27-0.2,0.38-0.28c0.18,0.06,0.31,0.11,0.44,0.16
			C153.29,14.3,153.16,14.42,153.01,14.45 M139,15.32c-0.03,0-0.08-0.14-0.06-0.19c0.06-0.12,0.15-0.22,0.24-0.35
			c0.21,0.09,0.43,0.16,0.62,0.28c0.06,0.04,0.05,0.2,0.08,0.31C139.59,15.36,139.29,15.35,139,15.32 M136.47,15.4
			c-0.19,0.07-0.47,0.03-0.65-0.07c-0.2-0.1,0.06-0.59,0.4-0.64c0.19-0.03,0.41,0.09,0.73,0.16
			C136.74,15.09,136.64,15.34,136.47,15.4 M128.48,15.81c-0.2,0.03-0.45,0.03-0.59-0.07c-0.13-0.09-0.15-0.34-0.21-0.52
			c0.14-0.04,0.28-0.08,0.42-0.12c0.18,0.11,0.38,0.2,0.52,0.35C128.65,15.5,128.55,15.8,128.48,15.81 M99.82,15.49
			c-0.46-0.01-0.92-0.03-1.37-0.1c-0.1-0.01-0.23-0.22-0.23-0.34c0-0.11,0.15-0.3,0.25-0.31c0.22-0.02,0.45,0.06,0.74,0.1
			c0.15-0.02,0.38-0.08,0.6-0.05c0.13,0.02,0.24,0.17,0.35,0.29C100.32,15.25,100.13,15.5,99.82,15.49 M96.52,15.38
			c-0.12-0.12-0.2-0.28-0.27-0.44c-0.01-0.02,0.13-0.14,0.14-0.13c0.17,0.11,0.32,0.24,0.5,0.38C96.73,15.28,96.55,15.4,96.52,15.38
			 M94.81,15.38c-0.33,0.25-0.78,0.16-1.18-0.25c-0.07-0.07-0.05-0.24-0.04-0.36c0-0.04,0.12-0.06,0.19-0.1
			c0.57-0.03,1.07,0.21,1.12,0.54C94.89,15.27,94.85,15.34,94.81,15.38 M83.36,14.86c-0.1,0.04-0.27-0.06-0.4-0.09
			c0.15-0.15,0.3-0.3,0.45-0.46c0.05,0.06,0.1,0.12,0.14,0.18C83.49,14.62,83.45,14.82,83.36,14.86 M76.7,13.02
			c-0.14-0.01-0.27-0.09-0.4-0.14c0.09-0.07,0.17-0.2,0.27-0.21c0.27-0.02,0.53,0,0.8,0C77.24,12.95,77,13.04,76.7,13.02
			 M242.18,14.78c-0.03-0.14-0.39-0.3-0.59-0.29c-1.58,0.08-3.17-0.34-4.76,0.03c-0.44,0.1-1.01,0.08-1.41-0.11
			c-1.63-0.78-3.35-0.49-4.94-0.2c-1.6,0.3-3.17,0.29-4.76,0.34c-0.96,0.03-1.95-0.09-2.86,0.15c-0.68,0.18-1.22,1-1.92,0.06
			c-0.03-0.04-0.34,0.05-0.4,0.15c-0.45,0.68-1.08,0.75-1.62,0.28c-0.53-0.47-1.08-0.61-1.74-0.61c-3.43-0.01-6.86-0.01-10.29-0.06
			c-1.9-0.03-3.8-0.05-5.69,0.05c-0.63,0.03-1.14,0.16-1.66,0.7c-0.49,0.52-1.29,0.72-2.16,0.26c-1.51-0.8-3.14-1.1-4.86-0.72
			c-0.44,0.1-0.93,0.05-1.39-0.01c-0.8-0.1-1.57,0.1-2.35,0.18c-0.54,0.06-0.79,0.52-1.19,0.67c-0.32,0.12-0.81-0.27-1.24-0.35
			c-0.28-0.05-0.74-0.03-0.85,0.14c-0.53,0.82-1.3,0.48-1.96,0.43c-0.62-0.04-1.22-0.33-1.84-0.48c-0.2-0.05-0.54-0.06-0.62,0.05
			c-0.47,0.69-1.1,0.5-1.72,0.39c-0.62-0.11-1.24-0.28-1.87-0.3c-0.93-0.04-1.92,0.23-2.54-0.82c-0.08-0.14-0.43-0.14-0.66-0.16
			c-0.32-0.03-0.67,0.06-0.95-0.04c-1.7-0.61-3.47-0.33-5.21-0.47c-0.23-0.02-0.47,0.07-0.69,0.14c-0.83,0.29-1.15,0.29-1.81-0.11
			c-0.49-0.31-1.01-0.45-1.59-0.45c-0.72,0-1.44-0.02-2.16-0.05c-0.57-0.02-0.84,0.12-0.76,0.79c0.03,0.25-0.86,0.25-0.93-0.11
			c-0.06-0.35-0.04-0.61-0.47-0.61c-0.64,0-1.28,0.01-1.92,0.01c-1.2-0.01-2.4,0.01-3.59-0.04c-0.78-0.03-1.54-0.09-2.33-0.07
			c-1.49,0.03-3.01,0.18-4.51-0.27c-1.3-0.39-2.69-0.21-4.05-0.12c-0.62,0.04-0.2,1.01-0.82,0.82c-0.69-0.21-1.82,0.82-2.05-0.7
			c-1.02-0.17-2.07-0.31-3.05,0.11c-0.87,0.37-1.65,0.99-2.54-0.01c-0.17-0.19-0.78-0.13-1.13,0c-0.63,0.23-1.18,0.29-1.83-0.01
			c-0.67-0.31-1.34-0.19-2.02,0.26c-0.55,0.37-1.44,0.62-1.92,0.17c-0.55-0.52-1.09-0.58-1.72-0.6c-0.96-0.02-1.92,0.04-2.88-0.01
			c-0.96-0.04-1.89-0.19-2.64,0.67c-0.17,0.2-0.59,0.24-0.9,0.24c-0.87,0-1.75,0.15-2.6-0.21c-0.72-0.31-1.5,0.02-2.27-0.19
			c-0.47-0.13-1.05,0.25-1.6,0.32c-0.55,0.07-1.14,0.17-1.66,0.04c-0.78-0.18-1.52-0.47-2.18,0.24c-0.53-0.11-1.06-0.23-1.6-0.34
			c0.06-0.11,0.1-0.25,0.19-0.34c0.23-0.25,0.15-0.35-0.15-0.35c-0.71,0-1.58-0.29-2.07,0.27c-0.56,0.65-0.82,0.53-1.26-0.02
			c-0.21-0.26-0.42-0.01-0.59,0.13c-0.4,0.3-0.79,0.58-1.23,0.05c-0.07-0.08-0.32-0.15-0.33-0.14c-0.5,0.82-1.28,0.52-1.96,0.46
			c-0.84-0.07-1.67-0.17-2.51-0.23c-1.89-0.14-3.81-0.03-5.61-0.79c-1.03-0.43-2.01-0.43-2.93,0.27c-0.36,0.27-0.74,0.31-1.03-0.1
			c-0.4-0.58-0.97-0.48-1.5-0.36c-1.17,0.26-1.21,0.32-1.39,0.1c-0.81-0.99-1.95-0.34-2.91-0.56c-0.32-0.08-0.15,0.3-0.2,0.49
			c-0.14,0.54-0.59,0.73-0.79,0.36c-0.51-0.97-1.46-0.75-2.24-0.93c-0.46-0.11-0.93-0.01-1.22,0.52c-0.04,0.08-0.53-0.08-0.81-0.13
			c0,0.01,0,0.01-0.01,0.01c-0.6-0.55-1.3-0.52-1.83,0c-0.4,0.39-0.78,0.45-1.26,0.45c-1.51,0.01-3.03,0.04-4.54,0.1
			c-0.14,0.01-0.32,0.29-0.4,0.48c-0.03,0.08,0.12,0.31,0.24,0.36c0.36,0.15,0.75,0.23,1.1,0.38c0.11,0.05,0.14,0.26,0.21,0.39
			c-0.14,0.07-0.29,0.22-0.41,0.19c-0.75-0.19-1.51-0.35-2.28-0.18c-0.11,0.03-0.21,0.15-0.29,0.26c-0.03,0.03,0.03,0.15,0.08,0.21
			c0.37,0.41,0.81,0.46,1.76,0.31c0.47-0.08,0.95-0.03,1.43-0.04c0.52,0,0.51,0,0.51-0.89c0-0.13,0.11-0.34,0.21-0.36
			c0.11-0.02,0.29,0.09,0.39,0.19c0.35,0.4,0.29,0.88,0.21,1.36c-0.02,0.13,0,0.27,0,0.4c0.14-0.01,0.31,0.03,0.4-0.04
			c0.31-0.23,0.56-0.54,0.88-0.76c0.53-0.37,0.91-0.26,0.98,0.38c0.04,0.37,0,0.61,0.43,0.61c1.44,0.03,2.87,0.04,4.31,0.06
			c0.72,0.01,1.45-0.06,2.15,0.07c0.63,0.12,1.23,0.15,1.87,0.16c0.55,0.01,1.25,0.33,1.59-0.11c0.59-0.75,1.08,0.19,1.6-0.07
			c0.65-0.32,1.36-0.32,2.06-0.34c0.23,0,0.57,0.07,0.66-0.04c0.45-0.6,0.94-0.38,1.47-0.19c0.37,0.13,0.83,0.37,1.14,0.26
			c0.85-0.3,1.55-0.23,2.21,0.41c0.05,0.05,0.29-0.03,0.38-0.11c0.16-0.17,0.31-0.48,0.54-0.21c0.7,0.81,1.63,0.79,2.43,0.48
			c1.53-0.58,3-0.47,4.42,0.17c1.07,0.48,2.22-0.23,3.24,0.39c0.17,0.11,0.51,0.09,0.7,0c1.04-0.49,2.22,0.31,3.26-0.39
			c0.24-0.16,0.77,0.05,1.13,0.17c0.62,0.21,1.21,0.46,1.7-0.24c0.23-0.32,0.42-0.05,0.58,0.09c0.32,0.29,0.66,0.4,1.09,0.36
			c1.17-0.1,2.34-0.28,3.49-0.49c0.47-0.09,0.9-0.07,1.37-0.03c1.01,0.08,1.99,0.48,3.06,0.24c0.66-0.15,1.39,0.11,2.12-0.01
			c0.73-0.13,1.55,0.29,2.16-0.49c0.08-0.1,0.49-0.04,0.67,0.07c0.62,0.34,1.19,0.18,1.84,0.03c1.08-0.24,2.19-0.37,3.3-0.42
			c0.61-0.03,1.24,0.15,1.85,0.31c0.55,0.14,1.04,0.2,1.62,0.08c0.68-0.14,1.41,0,2.12,0.02c0.47,0.01,0.96,0.14,1.4,0.03
			c0.73-0.19,1.38-0.1,2.1,0.06c1.04,0.23,2.14,0.64,3.22,0.11c0.26-0.13,0.43-0.06,0.59,0.14c0.29,0.36,0.75,0.45,1.08,0.31
			c0.96-0.4,1.87,0.02,2.8,0.05c0.48,0.02,0.98,0.11,1.43,0.02c1.8-0.39,3.59-0.64,5.42-0.26c0.06,0.01,0.13-0.09,0.21-0.1
			c1.15-0.2,1.94-0.1,3.36,0.25c0.69,0.17,1.44,0.12,2.12,0.31c0.72,0.2,1.25-0.1,1.76-0.47c0.31-0.23,0.49-0.63,0.78-0.89
			c0.16-0.15,0.52-0.13,0.45,0.18c-0.15,0.65,0.25,0.99,0.7,1.02c1.07,0.07,2.12,0.88,3.23,0.14c0.1-0.06,0.32,0,0.45,0.07
			c1.16,0.64,2.55,0.07,3.72,0.67c0.16,0.08,0.45-0.1,0.68-0.13c0.38-0.06,0.78-0.19,1.14-0.13c1.61,0.27,3.24-0.34,4.84,0.13
			c0.04,0.01,0.13-0.09,0.16-0.16c0.02-0.07,0.01-0.22-0.02-0.23c-0.36-0.13-0.74-0.23-1.1-0.35c-0.13-0.04-0.24-0.15-0.36-0.23
			c0.12-0.1,0.22-0.24,0.35-0.29c0.29-0.12,0.65-0.34,0.89-0.26c0.9,0.29,1.89-0.07,2.75,0.41c0.07,0.04,0.08,0.17,0.12,0.26
			c-0.07,0.03-0.15,0.06-0.22,0.07c-0.24,0.03-0.48,0.01-0.71,0.07c-0.1,0.02-0.18,0.17-0.24,0.27c-0.01,0.02,0.09,0.13,0.15,0.16
			c0.29,0.13,0.58,0.33,0.88,0.35c1.1,0.07,2.2,0.08,3.3,0.09c1.03,0.01,2.09,0.15,3.1-0.03c1.13-0.2,2.2,0.12,3.3,0.1
			c0.9-0.02,1.82-0.03,2.54-0.5c0.67-0.45,1.16-0.36,1.74,0c0.43,0.26,0.85,0.44,1.29-0.02c0.15-0.16,0.37-0.36,0.61-0.13
			c0.8,0.78,1.81,0.72,2.72,0.49c1.98-0.5,3.97-0.25,5.96-0.33c0.71-0.03,1.4,0.01,2.12,0.23c0.65,0.2,1.4,0.04,2.11,0.04
			c0.55-0.76,1.27-0.31,1.95-0.3c0.63,0.01,1.31,0.03,1.88-0.18c0.52-0.19,0.89-0.07,1.35,0.07c0.66,0.21,0.67,0.16,1.18-0.73
			c0.06-0.11,0.18-0.19,0.27-0.28c0.06,0.14,0.15,0.28,0.18,0.42c0.05,0.34,0.15,0.69,0.52,0.68c0.86-0.02,1.66,0.43,2.58,0.13
			c0.58-0.19,1.26-0.03,1.9-0.07c1.03-0.06,2.07,0.21,3.09-0.16c0.26-0.09,0.6,0.02,0.9,0.08c0.85,0.15,1.6,0.73,2.52,0.59
			c0.05-0.01,0.12,0.1,0.18,0.15c-0.1,0.07-0.19,0.2-0.3,0.21c-0.63,0.08-1.33,0-1.89,0.24c-1.01,0.44-2.03,0.44-3.06,0.38
			c-2.22-0.15-4.41,0.8-6.64,0.13c-0.13-0.04-0.3,0.11-0.45,0.13c-0.47,0.07-0.95,0.15-1.42,0.15c-0.8,0-1.67,0.13-2.37-0.14
			c-0.89-0.35-1.76,0.33-2.57-0.17c-1.73,0.11-3.45-0.24-5.19,0.14c-1.07,0.23-2.19,0.29-3.3-0.11c-0.49-0.18-1.13-0.21-1.63-0.07
			c-1.3,0.39-2.72,0.11-3.98,0.78c-0.24,0.13-0.63,0.05-0.93-0.02c-2.77-0.58-5.54-0.51-8.28,0.16c-0.5,0.12-0.9,0.09-1.36,0
			c-0.45-0.09-1.21-0.15-1.24,0.33c-0.05,0.84,0.64,0.28,1.03,0.31c0.55,0.05,1.09,0.15,1.63,0.23c0.38,0.06,0.76,0.14,1.13,0.21
			c-0.29,0.55-0.81,0.29-1.21,0.3c-1.12,0.03-2.23-0.01-3.35-0.01c-0.15,0-0.3,0.06-0.45,0.11c-0.06,0.02-0.11,0.09-0.16,0.14
			c0.06,0.05,0.12,0.14,0.19,0.14c2.07,0.01,4.14,0.03,6.21,0.01c0.11,0,0.2-0.34,0.32-0.51c0.08-0.11,0.17-0.26,0.28-0.3
			c0.37-0.12,0.77-0.29,1.14-0.25c0.16,0.02,0.21,0.56,0.39,0.79c0.13,0.16,0.41,0.23,0.63,0.25c0.21,0.02,0.48-0.01,0.44-0.38
			c-0.01-0.12,0.09-0.37,0.15-0.37c0.54-0.02,1.09,0,1.63,0.02c0.02,0,0.07,0.11,0.05,0.15c-0.03,0.07-0.09,0.14-0.16,0.16
			c-0.15,0.05-0.32,0.05-0.46,0.11c-0.06,0.02-0.06,0.16-0.09,0.25c0.98,0.13,1.93,0.2,2.18-1.11c0-0.03,0.27-0.02,0.4,0
			c0.05,0.01,0.11,0.1,0.13,0.16c0.22,0.95,0.22,0.95,0.77,0.86c0.47-0.08,0.94-0.19,1.42-0.21c3.19-0.11,6.38-0.1,9.57,0.17
			c0.47,0.04,0.94,0.03,1.41,0.01c0.79-0.04,1.59-0.15,2.38-0.15c1.51,0,3.02,0.09,4.52,0.07c1.51-0.02,3.02-0.16,4.54-0.18
			c0.71-0.01,1.42,0.13,2.13,0.22c0.04,0,0.08,0.1,0.09,0.16c0,0.08,0,0.19-0.05,0.22c-0.99,0.68-2.02,1.27-3.27,1.29
			c-1.76,0.03-3.51,0.06-5.27,0.08c-1.76,0.02-3.51,0.03-5.27,0.05c-0.56,0.01-1.12,0.01-1.56,0.47c-0.25,0.27-0.57,0.16-0.88,0.05
			c-1.38-0.49-2.78-0.62-4.19-0.14c-0.61,0.21-1.25,0.1-1.85,0.16c-1.11,0.11-2.22-0.31-3.28,0c-1.26,0.37-2.53,0.32-3.8,0.3
			c-1.41-0.02-2.82,0.44-4.24,0.06c-0.79,0.44-1.54,0.02-2.3-0.11c-0.54-0.09-1.08-0.29-1.62-0.29c-2.63-0.04-5.26-0.04-7.89-0.06
			c-0.4,0-0.8-0.04-1.19-0.1c-0.74-0.11-1.52-0.7-2.18,0.21c-0.05,0.06-0.28,0.02-0.42-0.02c-1.22-0.36-2.49-0.38-3.73-0.43
			c-1.34-0.05-2.68-0.15-4.03-0.13c-1.83,0.02-3.65,0-5.48-0.38c-0.95-0.2-2.06-0.42-2.94,0.47c-0.31,0.31-0.69,0.2-1.02-0.18
			c-0.18-0.21-0.54-0.34-0.83-0.35c-1.27-0.05-2.55-0.05-3.83-0.07c-0.68,0.5-1.46-0.19-2.07,0.11c-0.83,0.41-1.32,0.08-1.87-0.44
			c-0.09-0.09-0.34-0.1-0.46-0.04c-0.79,0.36-1.54-0.02-2.32-0.08c-1.15-0.09-2.4-0.45-3.24,0.79c-0.03,0.05-0.35-0.01-0.42-0.1
			c-0.11-0.16-0.08-0.51-0.2-0.56c-0.37-0.16-0.49,0.25-0.73,0.42c-0.14,0.11-0.46,0.13-0.61,0.04c-0.25-0.15-0.39-0.38-0.78-0.36
			c-1.16,0.07-2.33-0.42-3.5,0.15c-0.28,0.14-0.77-0.07-1.14-0.19c-0.51-0.17-0.94-0.09-1.3,0.31c-0.39,0.43-0.89,0.44-1.3,0.17
			c-0.39-0.25-0.65-0.75-0.98,0.01c-0.43-0.07-0.99,0.01-1.26-0.23c-0.38-0.35-0.67-0.37-1.04-0.15c-0.34,0.21-0.61,0.33-1.07,0.27
			c-0.85-0.1-1.73,0.02-2.6,0.05c-0.31,0.01-0.62,0.12-0.92,0.07c-0.78-0.14-1.54-0.41-2.32-0.49c-0.85-0.09-1.71-0.04-2.56-0.01
			c-0.74,0.03-1.59-0.51-2.17,0.39c-0.54-1.03-1.4-0.06-2.1-0.32c-0.58-0.21-1.24-0.18-1.88-0.23c-0.11-0.01-0.33,0.13-0.33,0.21
			c0,0.39-0.26,0.7-0.51,0.42c-0.68-0.76-1.53-0.75-2.41-0.76c-0.8,0-1.6-0.01-2.4,0.03c-0.71,0.04-1.42,0.22-2.12,0.22
			c-0.78,0-1.55-0.19-2.33-0.2c-0.54-0.01-1.13,0.05-1.62,0.25c-0.7,0.28-1.19-0.41-1.85-0.25c-0.39,0.09-0.74,0.14-1.02,0.5
			c-0.29,0.37-0.71,0.32-1.05,0.02c-0.32-0.28-0.6-0.37-1.06-0.25c-0.42,0.11-1.09-0.27-1.33-0.07c-0.57,0.48-0.89-0.04-1.31-0.06
			c-1.99-0.1-3.99-0.1-5.98-0.09c-0.26,0-0.57,0.23-0.78,0.43c-0.23,0.22-0.43,0.18-0.6,0.02c-0.44-0.41-0.95-0.52-1.54-0.51
			c-2.15,0.02-4.31,0-6.46,0.02c-0.47,0-1.09-0.05-1.37,0.22c-0.71,0.66-1.39,0.4-2.18,0.33c-1.01-0.1-2.09,0.31-3.05,0.09
			c-1.05-0.24-2.06-0.04-3.08-0.18c-0.15-0.02-0.32,0.01-0.47,0.07c-1.55,0.56-3.13,0.41-4.71,0.19c-0.3-0.04-0.62-0.05-0.91,0.01
			c-1.9,0.43-3.82,0.17-5.72,0.12c-0.85-0.02-1.67-0.24-2.57-0.2c-0.92,0.04-1.87-0.16-2.82-0.09c-0.84,0.07-1.76-0.33-2.47,0.47
			c-0.06,0.07-0.32,0.07-0.41,0.01c-1.33-0.94-2.95-0.52-4.39-0.93c-2.73,0.19-5.39-0.57-8.1-0.55c-0.15,0-0.38-0.03-0.45-0.13
			c-0.16-0.24-0.33-0.53-0.35-0.81c-0.01-0.13,0.29-0.42,0.46-0.42c1.6-0.03,3.19-0.03,4.79,0c1.66,0.03,3.34,0.29,4.97,0.11
			c1.59-0.18,3.17-0.24,4.77-0.25c1.99-0.02,3.97-0.13,5.95-0.21c0.87-0.03,1.75-0.05,2.62-0.11c1.1-0.08,2.2-0.19,3.3-0.29
			c0.03,0,0.09-0.11,0.08-0.13c-0.04-0.07-0.1-0.15-0.16-0.16c-0.24-0.04-0.48-0.04-0.71-0.09c-0.15-0.03-0.28-0.13-0.41-0.2
			c0.11-0.07,0.23-0.2,0.34-0.2c1.36-0.01,2.71-0.01,4.07-0.01c0.07,0,0.13,0.08,0.2,0.12c-0.07,0.09-0.12,0.25-0.2,0.26
			c-0.7,0.08-1.4,0.13-2.11,0.19c0.46,0.25,0.91,0.37,1.37,0.37c4.07-0.03,8.13,0.06,12.2,0.37c2.46,0.19,4.95,0.08,7.43,0.08
			c1.92,0.01,3.84-0.11,5.75,0.02c1.99,0.14,3.99-0.26,5.96,0.22c1.27-0.27,2.5,0.18,3.76,0.19c3.82,0.04,7.64,0.25,11.46,0.16
			c2.87-0.07,5.75-0.12,8.62-0.13c1.15,0,2.2-0.13,3.08-1c0.24-0.24,0.71-0.28,1.09-0.33c0.24-0.03,0.28,0.15,0.08,0.3
			c-0.32,0.24-0.42,0.49,0.05,0.61c0.3,0.08,0.63,0.02,0.95,0.02c3.83-0.02,7.67-0.08,11.5-0.03c1.75,0.02,3.5,0.31,5.25,0.35
			c3.67,0.07,7.35,0.04,11.02,0.09c2,0.02,4.01-0.03,5.98,0.21c1.59,0.19,3.18,0.25,4.77,0.33c1.43,0.08,2.86,0.09,4.29,0.32
			c1.25,0.2,2.55,0.09,3.83,0.12c0.61,0.01,0.51-0.39,0.49-0.78c0-0.12,0.16-0.29,0.29-0.35c0.33-0.17,0.37,0.13,0.46,0.33
			c0.34,0.72,0.67,0.9,1.21,0.6c0.35-0.19,0.63-0.52,0.99-0.64c0.35-0.11,0.77-0.04,1.16-0.04c0.06,0,0.11,0.1,0.17,0.15
			c-0.06,0.06-0.1,0.14-0.17,0.17c-0.22,0.08-0.47,0.12-0.67,0.23c-0.1,0.06-0.2,0.28-0.17,0.37c0.04,0.11,0.23,0.25,0.35,0.25
			c0.69-0.02,1.41,0.07,1.78-0.8c0.2-0.47,0.77-0.51,1.27-0.42c0.44,0.08,0.72,0.3,0.77,0.77c0.04,0.38,0.28,0.55,0.64,0.54
			c0.31-0.01,0.62-0.06,0.93-0.11c0.01,0,0.04-0.15,0.01-0.19c-0.15-0.18-0.32-0.34-0.48-0.5c-0.11-0.11-0.21-0.21-0.32-0.32
			c0.13-0.06,0.26-0.16,0.39-0.17c0.72-0.04,1.44-0.03,2.15-0.11c0.14-0.02,0.28-0.31,0.36-0.51c0.02-0.04-0.21-0.27-0.32-0.27
			c-0.79,0.03-1.6,0-2.36,0.17c-0.48,0.1-0.9,0.13-1.39,0.04c-0.93-0.16-1.88-0.19-2.82-0.29c-1.02-0.11-2.11-0.52-3.04-0.29
			c-1.04,0.26-1.85-0.29-2.78-0.25c-0.64,0.03-1.3-0.08-1.91,0.06c-0.57,0.13-0.99,0.04-1.54-0.17c-0.71-0.27-1.55-0.26-2.34-0.29
			c-1.83-0.07-3.67-0.04-5.49-0.18c-0.61-0.05-1.18-0.3-1.86-0.18c-0.68,0.12-1.45-0.24-2.1-0.07c-0.75,0.19-1.41-0.08-2.1-0.02
			c-0.79,0.07-1.57,0.06-2.35,0c-1.03-0.08-2.07-0.07-3.11-0.09c-1.36-0.03-2.76,0.16-4.06-0.12c-1.43-0.31-2.85-0.32-4.27-0.35
			c-1.35-0.03-2.71,0.01-4.07,0.07c-0.28,0.01-0.72,0.2-0.78,0.39c-0.38,1.35-0.41,0.28-0.67-0.04c-0.16-0.21-0.57-0.37-0.83-0.33
			c-1.35,0.26-2.67-0.05-4.01-0.04c-0.55,0-1.11,0.13-1.66,0.19c-0.71,0.07-1.42,0.21-2.13,0.19c-1.5-0.04-3.01-0.17-4.51-0.25
			c-0.71-0.03-1.46-0.15-2.14,0c-2.35,0.54-4.75,0.21-7.12,0.47c-1.96,0.21-3.97-0.11-5.96-0.17c-1.66-0.05-3.32-0.09-4.98-0.09
			c-1.11,0-2.29,0.36-3.32,0.09c-1.22-0.31-2.34,0.09-3.5-0.01c-0.31-0.03-0.62-0.15-0.93-0.2c-0.54-0.09-1.09-0.22-1.64-0.24
			c-1.44-0.05-2.88-0.06-4.31-0.07c-0.88-0.01-1.79,0.14-2.63-0.03c-2.27-0.46-4.57-0.35-6.85-0.41c-1.02-0.03-2.08-0.17-3.07,0.32
			c-0.19,0.09-0.49,0.09-0.68,0c-0.71-0.34-1.39-0.24-2.1-0.03c-0.68,0.21-1.39-0.05-2.11,0.17c-0.58,0.18-1.29,0.15-1.9,0.03
			c-0.76-0.15-1.36,0.74-2.06,0.29c-0.72-0.45-1.34,0.19-2.08,0.03c-0.64-0.14-1.33,0-2-0.36c-0.46-0.25-1.07-0.28-1.61-0.35
			c-0.95-0.11-1.91-0.16-2.86-0.23c-0.23-0.02-0.5-0.12-0.68-0.03c-1.48,0.73-3.07,0.4-4.61,0.51c-0.61,0.04-1.24-0.32-1.86-0.31
			c-0.69,0.01-1.37,0.32-2.07,0.36c-0.45,0.03-0.92-0.25-1.38-0.27c-0.53-0.03-1.04,0.2-1.61-0.02c-0.51-0.2-1.1-0.15-1.64-0.28
			c-0.29-0.07-0.54-0.31-0.81-0.47c0.25-0.07,0.49-0.18,0.74-0.19c0.88-0.04,1.76-0.08,2.64-0.04c0.9,0.04,1.74,0.06,2.34-0.81
			c0.1-0.14,0.58-0.02,0.89-0.02c-0.16,0.77,0.37,0.68,0.84,0.69c2.15,0.05,4.28-0.06,6.33-0.82c0.21-0.08,0.51-0.13,0.68-0.03
			c1.02,0.58,1.96,0.56,2.88-0.19c0.26-0.21,0.42,0.01,0.58,0.19c0.24,0.26,0.56,0.4,0.8,0.08c0.54-0.69,1.18-0.77,1.9-0.4
			c0.91,0.47,1.84-0.09,2.76,0.1c0.12,0.03,0.48-0.35,0.45-0.46c-0.06-0.26-0.27-0.63-0.48-0.68c-0.36-0.08-0.76,0.06-1.15,0.08
			c-0.12,0.01-0.26-0.09-0.38-0.14c0.13-0.16,0.25-0.46,0.39-0.47c0.63-0.04,1.3-0.11,1.9,0.05c0.75,0.19,1.4-0.07,2.08-0.22
			c0.1-0.02,0.21-0.24,0.21-0.36c-0.01-0.12-0.16-0.33-0.26-0.33c-0.77-0.02-1.58-0.14-2.31,0.04c-0.84,0.21-1.53-0.32-2.34-0.19
			c-1,0.16-2.01-0.42-3.03-0.02c-0.1,0.04-0.3-0.08-0.39-0.19c-0.14-0.15,0.23-0.52-0.16-0.55c-0.16-0.01-0.34,0.26-0.52,0.39
			c-0.18,0.13-0.43,0.38-0.56,0.33c-1.05-0.38-2.21,0.34-3.22-0.34c-1.03,0.44-2.17-0.61-3.18,0.23c-0.1,0.08-0.33,0.07-0.46,0.02
			c-1.07-0.48-2.21-0.29-3.31-0.39c-1.17-0.11-2.35-0.21-3.52-0.27c-1.11-0.06-2.23-0.08-3.34-0.06c-0.87,0.01-1.74,0.12-2.62,0.16
			c-0.31,0.02-0.64,0.04-0.92-0.04c-1.27-0.38-2.54-0.21-3.8,0.02c-0.8,0.15-1.56,0.14-2.37,0.06c-1.49-0.15-2.97-0.44-4.49-0.27
			c-0.71,0.08-1.44,0-2.09-0.4c-0.51-0.31-0.84-0.01-1.26,0.29c-0.85,0.61-0.91,1.64-1.43,2.43c-0.99,1.47-1.59,3.12-2.05,4.82
			c-0.12,0.46-0.01,1.04-0.26,1.38c-0.22,0.3-0.86,0.26-1.21,0.52c-0.56,0.41-1.07,0.83-1.27,1.63c-0.41,1.63-1.39,3.03-2.33,4.4
			c-0.57,0.83-1.06,1.58-0.94,2.6c0.05,0.42-0.03,0.77-0.36,1.07c-1,0.92-1.16,2.46-2.37,3.22c-0.18,1.07-0.91,1.85-1.44,2.73
			c-0.37,0.62-0.71,1.25-1.02,1.9c-0.23,0.48,0.36,1.18,0.9,1.09c0.23-0.04,0.45-0.15,0.68-0.21c2.1-0.53,4.22-0.87,6.38-0.77
			c1.68,0.08,3.34,0.11,5.01-0.16c1.17-0.19,2.39-0.11,3.59-0.14c0.48-0.01,0.72,0.3,0.81,0.72c0.07,0.31,0.1,0.63,0.1,0.94
			c-0.05,3.98,0.07,7.95,0.31,11.92c0.08,1.27,0.32,2.54,0.36,3.81c0.05,1.51-0.04,3.03-0.05,4.55c-0.01,1.52,0.01,3.03,0.33,4.53
			c0.18,0.85,0.14,1.74,0.16,2.62c0.07,2.47-0.16,4.93,0.02,7.4c0.11,1.5,0.18,3.03-0.25,4.53c-0.15,0.52-0.12,1.11-0.14,1.66
			c-0.11,2.85-0.06,5.7-0.43,8.54c-0.13,1.02-0.02,2.07-0.04,3.11c-0.01,0.47,0.07,1.02-0.12,1.41c-0.39,0.78-0.32,1.63-0.21,2.34
			c0.2,1.3-0.04,2.53-0.19,3.78c-0.15,1.34-0.35,2.68-0.54,4.01c-0.21,1.4-0.43,2.81-0.66,4.21c-0.05,0.31-0.17,0.63-0.17,0.94
			c0.02,1.2-0.1,2.38-0.4,3.56c-0.11,0.44-0.14,0.97,0.37,1.28c0.21,0.13,0.21,0.25-0.01,0.35c-0.54,0.25-0.51,0.76-0.54,1.23
			c-0.06,0.8,0.01,1.61-0.13,2.39c-0.32,1.75-0.28,3.49-0.02,5.24c0.05,0.31,0.11,0.66,0.02,0.94c-0.78,2.41-0.05,4.93-0.54,7.36
			c-0.03,0.15,0.22,0.43,0.41,0.52c0.18,0.09,0.45,0.04,0.67,0c0.14-0.03,0.3-0.14,0.39-0.26c1.1-1.52,2.72-2.38,4.25-3.35
			c0.27-0.17,0.57-0.28,0.82-0.47c0.57-0.42,1.12-0.87,1.68-1.31c-0.1-0.62-0.22-1.23-0.3-1.85c-0.05-0.4-0.05-0.8-0.05-1.2
			c-0.01-2.72-0.01-5.43-0.01-8.15c0-1.44-0.04-2.88,0.08-4.31c0.26-2.93,0.58-5.85,0.94-8.77c0.19-1.57,0.54-3.13,0.8-4.7
			c0.19-1.18,0.36-2.36,0.5-3.55c0.02-0.17-0.14-0.51-0.25-0.52c-0.99-0.11-0.54-0.42-0.15-0.79c0.21-0.2,0.44-0.48,0.46-0.75
			c0.16-1.58,0.32-3.17,0.37-4.76c0.1-3.11,0.13-6.23,0.18-9.34c0-0.32,0.02-0.65-0.09-0.94c-0.16-0.43-0.33-0.05-0.49,0.05
			c-0.19,0.11-0.46,0.34-0.57,0.28c-0.39-0.2-0.22-0.53-0.02-0.78c0.31-0.39,0.52-0.73,0.31-1.29c-0.12-0.31,0.08-0.75,0.14-1.13
			c0.07-0.38,0.19-0.76,0.2-1.14c0-0.21-0.13-0.54-0.29-0.6c-0.39-0.16-0.48,0.19-0.62,0.49c-0.12,0.25-0.35,0.46-0.53,0.69
			c-0.42-0.76-0.49-1.61-0.49-2.46c0.01-2.07,0.02-4.14,0.06-6.22c0-0.2,0.13-0.41,0.26-0.58c0.12-0.16,0.61,0.35,0.53,0.66
			c-0.29,1.12,0.29,2.22,0.06,3.3c-0.12,0.56-0.05,1.08-0.03,1.62c0.02,0.68,0.08,1.23,0.94,1.21c0.27,0.46,0.55,0.92,0.85,1.42
			c0.08-0.16,0.13-0.23,0.15-0.3c0.19-1.17,0.18-2.34,0.13-3.53c-0.1-2.62,0.08-5.25,0.15-7.88c0.01-0.31,0.08-0.63,0.06-0.94
			c-0.21-2.78-0.51-5.56-0.64-8.34c-0.12-2.53-0.26-5.06-0.48-7.59c-0.12-1.34-0.05-2.71,0.05-4.06c0.08-1.04,0.52-1.36,1.57-1.38
			c0.56-0.01,1.12,0,1.68,0c5.97,0.01,11.94,0.15,17.89-0.4c0.48-0.04,0.95-0.09,1.43-0.14c-0.08-0.11-0.13-0.24-0.23-0.33
			c-0.37-0.33-0.12-0.55,0.16-0.7c0.3-0.16,0.73-0.17,0.79,0.19c0.11,0.75,0.55,1,1.16,0.8c0.94-0.31,1.89-0.25,2.84-0.27
			c2.07-0.04,4.17,0.09,6.21-0.18c1.67-0.22,3.33-0.31,5-0.33c0.4-0.01,0.8,0,1.2-0.05c4.04-0.52,8.11-0.33,12.17-0.43
			c2.07-0.05,4.15,0.11,6.22,0.07c6.78-0.13,13.55-0.25,20.3,0.54c0.55,0.07,1.1,0.15,1.66,0.17c1.27,0.06,2.55,0.08,3.82,0.12
			c0.72-0.56,1.53,0.03,2.28-0.16c1.84,0.6,3.75,0.62,5.66,0.7c1.42,0.05,2.84,0.28,4.25,0.41c2.06,0.19,4.14,0.09,6.21,0.1
			c1.67,0.01,3.34-0.21,4.98,0.31c0.29,0.09,0.63,0.02,0.95,0.01c1.8-0.09,3.58-0.39,5.39-0.11c0.38,0.06,0.78-0.05,1.17-0.07
			c0.71-0.03,1.42-0.06,2.14-0.06c0.71-0.01,1.39,0.19,2.12-0.01c0.42-0.12,1.05,0.29,1.38,0.1c0.53-0.31,0.94-0.29,1.48-0.18
			c0.6,0.12,1.27,0.62,1.82,0.12c0.37-0.34,0.5-0.93,0.76-1.41c0.02-0.04,0.08-0.06,0.14-0.08c0.01,0.29,0.03,0.6,0.42,0.62
			c0.54,0.02,1.09-0.02,1.64-0.03c0.48,0.87,1.46,0.23,2.11,0.69c0.48,0.34,1.08,0.15,1.58-0.17c0.2-0.13,0.37-0.32,0.58-0.42
			c0.45-0.22,0.98-0.33,1.31,0.11c0.35,0.47,0.78,0.5,1.26,0.47c0.14-0.01,0.27-0.1,0.4-0.15c-0.13-0.08-0.26-0.18-0.39-0.25
			c-0.07-0.04-0.2-0.01-0.22-0.06c-0.13-0.24-0.11-0.31,0.2-0.28c1.06,0.1,2.13-0.83,3.18,0.06c0.09,0.07,0.41-0.08,0.6-0.19
			c0.65-0.38,1.24-0.74,1.85,0.14c0.17,0.25,0.7,0.32,1.08,0.35c1.2,0.07,2.42-0.05,3.59,0.15c2.23,0.38,4.43,0.35,6.63-0.12
			c0.38-0.08,0.79-0.03,1.19-0.03c0.72,0,1.43,0.05,2.15-0.01c1.98-0.15,3.96,0,5.94-0.42c1.23-0.26,2.55-0.07,3.82-0.08
			c3.83-0.03,7.67-0.06,11.5-0.08c0.55,0,1.11,0.11,1.49-0.49c0.08-0.12,0.43-0.04,0.63-0.11c0.46-0.16,0.86-0.3,1.34,0.02
			c0.72,0.48,0.78-0.65,1.34-0.63c0.23,0.01,0.53,0,0.66,0.13c0.34,0.34,0.64,0.65,1.18,0.68c0.44,0.03,0.68,0.39,0.78,0.8
			c0.09,0.39,0.18,0.78,0.19,1.18c0.21,5.35,0.17,10.68-0.57,16c-0.33,2.36-0.55,4.73-0.73,7.1c-0.09,1.19,0.08,2.39,0.07,3.59
			c-0.02,1.26-0.13,2.51-0.16,3.77c-0.01,0.3,0.08,0.64,0.23,0.89c0.09,0.14,0.53,0.1,0.58,0.23c0.16,0.39-0.27,0.46-0.47,0.67
			c-0.24,0.25-0.15,0.68,0.14,0.77c0.23,0.07,0.48,0.06,0.7,0.15c0.32,0.12,0.62,0.22,0.67-0.26c0.05-0.56,0.05-1.11,0.05-1.67
			c0.01-1.2,0.13-2.41-0.03-3.59c-0.17-1.28,0.7-2.49,0.13-3.76c0.67-1.24,0.24-2.68,0.74-3.94c-0.11-2.71,0.3-5.4,0.71-8.06
			c0.52-3.4,0.14-6.83,0.7-10.21c0.03-0.15,0.06-0.34,0.01-0.47c-0.43-1.03-0.02-1.9,0.4-2.89c0.8,1.93-0.09,3.91,0.62,5.74
			c0.02,0.06-0.04,0.15-0.08,0.22c-0.37,0.69-0.35,1.38,0.02,2.06c-0.38,0.75-0.05,1.34,0.37,1.97c0.2,0.3,0.18,0.76,0.21,1.15
			c0.01,0.09-0.15,0.19-0.23,0.28c-0.06-0.14-0.13-0.27-0.19-0.41c-0.03-0.07-0.02-0.17-0.05-0.23c-0.12-0.21-0.24-0.21-0.3-0.01
			c-0.14,0.53-0.35,1.06-0.39,1.61c-0.12,1.64-0.69,3.27-0.12,4.91c0.13,0.36,0.07,0.53-0.2,0.79c-0.2,0.19-0.28,0.55-0.31,0.85
			c-0.06,0.64-0.02,1.28-0.09,1.92c-0.19,1.66-0.12,2.42,0.38,3.95c0.07,0.22,0.08,0.48,0.06,0.71c-0.01,0.12-0.13,0.24-0.2,0.36
			c-0.08-0.13-0.16-0.26-0.23-0.39c-0.03-0.07-0.01-0.17-0.05-0.23c-0.26-0.38-0.29-0.05-0.3,0.12c-0.02,0.56-0.04,1.12-0.01,1.68
			c0.02,0.31,0.24,0.29,0.48,0.18c0.45-0.2,0.84-0.42,0.82-1.02c-0.02-0.63-0.04-1.29,0.1-1.9c0.15-0.62,0.11-1.24,0.2-1.83
			c0.1-0.71,0.14-1.41,0.17-2.12c0.02-0.52,0.13-1.04,0.2-1.56c0.27,0.55,0.33,1.09,0.33,1.64c0,1.28-0.03,2.56-0.01,3.83
			c0,0.31,0.1,0.62,0.21,0.91c0.05,0.12,0.23,0.23,0.37,0.26c0.09,0.02,0.3-0.12,0.3-0.21c0.08-0.87,0.08-1.72-0.23-2.59
			c-0.31-0.85,0.89-1.51,0.43-2.46c-0.1-0.2-0.05-0.47,0.27-0.44c0.12,0.01,0.29,0.18,0.34,0.31c0.11,0.3,0.14,0.62,0.23,0.92
			c0.02,0.06,0.11,0.11,0.18,0.14c0.03,0.01,0.13-0.04,0.14-0.07c0.11-1.1,0.35-2.22-0.04-3.29c-0.24-0.67-0.62-1.32-1.55-1.23
			c-0.37,0.03-0.6-0.21-0.61-0.57c-0.01-0.88,0-1.75,0.02-2.63c0-0.07,0.16-0.14,0.25-0.21c0.09,0.13,0.22,0.24,0.27,0.38
			c0.24,0.74,0.26,1.5,0.11,2.27c-0.01,0.06,0.18,0.19,0.3,0.25c0.04,0.02,0.17-0.02,0.21-0.07c0.48-0.65,0.8-1.36,0.8-2.2
			c0-0.25,0.15-0.28,0.27-0.07c0.04,0.07,0.05,0.15,0.07,0.22c0.05,0.14,0.07,0.37,0.17,0.42c0.4,0.21,0.31-0.2,0.33-0.35
			c0.06-0.39-0.01-0.82,0.1-1.19c0.22-0.71,0.46-1.37-0.39-1.84c-0.02-0.01,0.12-0.36,0.14-0.36c0.4,0.1,0.56-0.05,0.64-0.45
			c0.31-1.57,0.51-3.13,0.46-4.74c-0.05-1.59,0.05-3.19,0.1-4.79c0.02-0.56,0.48-1.05,1.08-1.08c0.46-0.02,0.95,0.06,1.39,0.19
			c0.69,0.21,1.18,0.07,1.69-0.49c1.56-1.7,3.03-3.48,4.85-4.94c0.36-0.29,0.59-0.74,0.85-1.14c0.13-0.19-0.1-0.74-0.35-0.79
			c-0.29-0.06-0.61-0.05-0.91-0.02c-0.77,0.08-0.83,0.01-0.57-0.69c0.31-0.84,0.82-1.46,1.5-2.08c1.04-0.95,2.22-1.82,2.95-3.09
			c0.26-0.46,0.08-0.96-0.46-1.1c-0.45-0.11-0.92-0.17-1.38-0.25c0-0.69,0.72-0.78,1.02-1.22c0.27-0.39,0.55-0.78,0.84-1.16
			c0.68-0.88,1.37-1.76,2.05-2.63c0.59-0.75,1.21-1.48,1.76-2.26C242.2,15.43,242.24,15.06,242.18,14.78"/>
		<path d="M223.31,119.01c-0.06-0.57,0.4-0.74,0.89-0.77c0,1.08,0.01,2.15,0,3.23c0,0.08-0.16,0.16-0.24,0.24
			c-0.05-0.06-0.14-0.11-0.15-0.17C223.63,120.7,223.4,119.86,223.31,119.01 M223.24,110.29c-0.05,0.07-0.14,0.22-0.24,0.36
			c-0.05-0.14-0.11-0.28-0.14-0.42c-0.02-0.15-0.03-0.31-0.01-0.45c0.03-0.14,0.11-0.27,0.17-0.41c0.07,0.12,0.16,0.24,0.19,0.37
			C223.27,109.89,223.24,110.05,223.24,110.29 M222.78,129.65c0,0.07-0.08,0.13-0.12,0.2c-0.09-0.09-0.24-0.18-0.25-0.28
			c-0.18-2.05-0.86-4.05-0.49-6c-0.17-1.47,0.05-2.81-0.4-4.14c-0.24-0.69-0.02-1.54,0-2.31c0-0.06,0.09-0.16,0.15-0.17
			c0.22-0.05,0.45-0.11,0.67-0.1c0.06,0,0.2,0.26,0.16,0.35c-0.43,1.06-0.39,2.12-0.2,3.24c0.16,0.92,0.04,1.9,0.03,2.85
			c-0.01,1.11,0.09,2.18,0.35,3.28C222.92,127.55,222.77,128.62,222.78,129.65 M225.18,126.73c-0.03-0.18-0.2-0.34-0.3-0.51
			c-0.05,0.15-0.14,0.29-0.16,0.44c-0.1,0.62-0.17,1.25-0.26,1.87c-0.01,0.04-0.14,0.08-0.21,0.07c-0.06-0.01-0.17-0.09-0.17-0.12
			c0.19-1.33,0.35-2.66-0.22-3.96c-0.04-0.09,0.11-0.25,0.17-0.39c0.13,0.09,0.28,0.15,0.39,0.26c0.11,0.11,0.17,0.27,0.27,0.39
			c0.08,0.11,0.19,0.2,0.29,0.3c0.03-0.15,0.13-0.33,0.08-0.46c-0.44-1.39-0.36-2.83-0.39-4.26c-0.01-0.56,0-1.12-0.07-1.67
			c-0.02-0.17-0.2-0.32-0.34-0.47c0,0,0.01,0,0.01,0c0.01-0.08,0.01-0.16,0.02-0.24c0.09-0.58,0.52-1.29-0.58-1.41
			c-0.13-0.01-0.31-0.36-0.32-0.56c-0.04-0.62-0.02-1.24-0.02-1.86c0.28,0.6,0.42,1.21,0.57,1.8c0.01,0.05,0.13,0.13,0.18,0.12
			c0.13-0.04,0.34-0.1,0.36-0.19c0.08-0.3,0.16-0.63,0.11-0.93c-0.4-2.21-0.37-4.44-0.52-6.67c-0.04-0.55-0.25-1.08-0.38-1.62
			c-0.06-0.24-0.18-0.26-0.32-0.05c-0.23,0.33-0.47,0.45-0.57-0.05c-0.1-0.46-0.09-0.94-0.14-1.41c-0.01-0.05-0.1-0.11-0.15-0.12
			c-0.07-0.01-0.2,0-0.22,0.05c-0.25,0.48-0.69,0.98-0.68,1.46c0.03,1.22-0.16,2.45,0.15,3.68c0.26,1.03,0.93,2.09,0.1,3.18
			c0.1,0.53,0.21,1.06,0.28,1.6c0.03,0.22-0.01,0.46-0.08,0.67c-0.04,0.12-0.21,0.25-0.35,0.28c-0.08,0.02-0.3-0.12-0.3-0.2
			c-0.03-0.55,0-1.11-0.03-1.67c-0.04-0.63,0.01-1.31-0.2-1.88c-0.26-0.7-0.3-1.38-0.28-2.1c0.02-0.71-0.05-1.42-0.12-2.12
			c-0.01-0.08-0.24-0.21-0.35-0.21c-0.13,0.01-0.35,0.15-0.35,0.23c-0.02,0.46-0.09,0.97,0.07,1.38c0.38,1.02,0.49,2.11,0.16,3.05
			c-0.31,0.88-0.13,1.54,0.23,2.24c0.64,1.22,0.26,2.48,0.14,3.72c-0.01,0.08-0.38,0.13-0.58,0.2c0.12,0.28,0.22,0.56,0.35,0.84
			c0.06,0.14,0.25,0.33,0.21,0.4c-0.49,0.91-0.02,1.69,0.32,2.48c0.16,0.37,0.02,0.54-0.27,0.76c-0.36,0.26-0.29,0.7-0.26,1.1
			c0.03,0.39,0.22,0.51,0.6,0.53c0.12,0,0.3,0.34,0.3,0.52c0,0.47-0.09,0.94-0.14,1.41c-0.05,0.46,0.27,1.77,0.42,2.31
			c0.12,0.43,0.03,0.91,0.04,1.38c-1.01,0.06-0.76,0.8-0.65,1.34c0.1,0.48,0.1,0.92,0.06,1.4c-0.08,0.83,0.45,1.26,1.14,0.95
			c1.23-0.57,2.43-1.19,3.61-1.85c0.21-0.12,0.38-0.55,0.34-0.81c-0.08-0.54-0.35-1.06-0.46-1.6
			C225.49,128.76,225.37,127.74,225.18,126.73"/>
		<path d="M219.71,132.79c0.27-1.02-0.13-1.91-0.35-2.81c-0.27-1.09-0.4-2.17-0.38-3.29c0.02-1.19,0.16-2.45-0.15-3.57
			c-0.32-1.19,0.12-2.32-0.2-3.52c-0.38-1.42-0.19-2.86-0.27-4.36c0.02-0.05,0.03-0.06,0.04-0.14c-0.06-0.38-0.09-0.78-0.18-1.15
			c-0.03-0.11-0.23-0.24-0.36-0.25c-0.09-0.01-0.29,0.16-0.29,0.25c-0.02,0.75-0.12,1.43-0.9,1.81c-0.15,0.07-0.27,0.37-0.27,0.56
			c0.01,0.71,0.08,1.43,0.14,2.14c0.09,0.93-0.15,1.94,0.7,2.68c0.04,0.03-0.04,0.31-0.13,0.35c-0.31,0.15-0.52,0.35-0.5,0.71
			c0.05,0.87-0.04,1.74,0.34,2.58c0.21,0.48,0.35,1.12,0.21,1.59c-0.24,0.81-0.15,1.59-0.02,2.36c0.32,2.04,0.34,4.09,0.44,6.13
			c0.02,0.39,0.01,0.8,0.11,1.18c0.04,0.14,0.4,0.34,0.52,0.29c0.51-0.21,1.01-0.48,1.48-0.76c0.44-0.26,0.58-0.71,0.43-1.21
			C219.98,133.84,219.59,133.25,219.71,132.79"/>
		<path d="M216.4,111.19c-0.09,0.07-0.05,0.43,0.04,0.59c0.16,0.26,0.4,0.47,0.62,0.68c0.1,0.09,0.3,0.21,0.37,0.17
			c0.19-0.11,0.47-0.3,0.47-0.46c0.02-1.35-0.02-2.7-0.04-4.04c-0.55-0.7-0.02-1.52-0.25-2.28c-0.27-0.86,0.02-1.73,0.25-2.58
			c0.08-0.3,0.07-0.63,0.09-0.95c0.13-2.77-0.15-5.55,0.33-8.3c0.01-0.07-0.02-0.17-0.07-0.22c-0.1-0.11-0.22-0.25-0.35-0.27
			c-0.08-0.02-0.27,0.13-0.3,0.23c-0.08,0.31-0.05,0.64-0.16,0.93c-0.05,0.14-0.31,0.21-0.48,0.32c0-0.13-0.04-0.27,0.01-0.38
			c0.15-0.33,0.11-0.62-0.13-0.87c-0.1-0.1-0.27-0.15-0.41-0.21c-0.02-0.01-0.11,0.08-0.11,0.13c-0.02,0.63-0.04,1.27-0.04,1.9
			c0,0.43,0.2,0.81,0.6,0.95c0.58,0.2,0.6,0.65,0.66,1.13c0.13,1.07-0.62,1.94-0.61,2.98c-0.41-0.31-0.8-0.6-0.71,0.3
			c0.05,0.47-0.02,0.97,0.1,1.42c0.05,0.19,0.63,0.28,0.63,0.43c0.08,1.74,0.09,3.49,0.1,5.23c0,0.07-0.18,0.14-0.27,0.2
			c-0.07-0.13-0.13-0.28-0.21-0.4c-0.28-0.45-0.33-0.46-0.37-0.13c-0.01,0.08-0.02,0.16-0.03,0.19c0,0.52-0.03,1,0.01,1.47
			c0.02,0.21,0.15,0.49,0.32,0.59C217.22,110.43,216.92,110.78,216.4,111.19"/>
		<path d="M221.2,95.2c-0.16-0.26-0.23-0.58-0.37-0.86c-0.05-0.11-0.16-0.2-0.25-0.29c-0.04,0.07-0.12,0.14-0.12,0.2
			c0.05,0.85-0.55,1.62-0.16,2.53c0.2,0.48,0.19,1.13,0.05,1.65c-0.25,0.97-0.04,1.83,0.27,2.89c0.1-0.38,0.19-0.59,0.19-0.81
			c0.02-0.87,0.01-1.75,0.03-2.62c0.01-0.4,0.01-0.8,0.1-1.19c0.04-0.18,0.27-0.33,0.42-0.49c0.13,0.16,0.37,0.33,0.35,0.47
			c-0.06,0.39-0.18,0.73-0.04,1.15c0.27,0.77,0.24,1.56-0.13,2.32c-0.07,0.13-0.12,0.34-0.07,0.45c0.17,0.35,0.37,0.7,0.62,1
			c0.1,0.12,0.67-0.56,0.64-0.89c-0.04-0.46-0.07-0.95-0.25-1.37c-0.23-0.56,0.12-0.9,0.31-1.31c0.03-0.06,0.14-0.15,0.17-0.13
			c0.11,0.05,0.28,0.14,0.29,0.22c0.04,0.47,0.04,0.95,0.05,1.43c0.01,0.63,0.02,1.25,0.04,1.88c0,0.06,0.1,0.12,0.15,0.17
			c0.05-0.06,0.14-0.12,0.14-0.19c0.01-1.26,0.02-2.53,0.01-3.79c0-0.14-0.12-0.33-0.23-0.39c-0.72-0.36-0.63-1-0.65-1.64
			c-0.02-0.71-0.07-0.73-0.77-0.31C221.68,95.47,221.41,95.54,221.2,95.2"/>
		<path d="M216.97,77.61c-0.49,0.1-0.7,0.08-0.69,0.79c0.02,1.65-0.46,3.31,0.05,5.09c0.11-0.47,0.18-0.83,0.28-1.18
			c0.15-0.5,0.39-0.55,0.85-0.2c0.12,0.09,0.22,0.22,0.33,0.33c0.03-0.07,0.09-0.14,0.09-0.21c0.06-0.64,0.09-1.27-0.41-1.79
			c-0.39-0.4-0.4-0.85,0-1.26c0.35-0.36,0.53-0.78,0.53-1.29c0-1.03,0.01-2.07-0.01-3.11c0-0.14-0.09-0.38-0.22-0.4
			c-0.19,0.11-0.23,0.25-0.23,0.39c-0.02,0.71,0.04,1.43-0.04,2.14C217.47,77.16,217.19,77.56,216.97,77.61"/>
		<path d="M217.96,86.75c-0.02-0.14-0.15-0.26-0.23-0.4c-0.06,0.12-0.16,0.24-0.18,0.37c-0.08,0.46-0.11,0.93-0.2,1.38
			c-0.02,0.08-0.27,0.19-0.38,0.16c-0.12-0.03-0.26-0.19-0.29-0.32c-0.04-0.14,0.04-0.3,0.07-0.46c0.01-0.07,0.03-0.15,0.01-0.21
			c-0.03-0.07-0.11-0.14-0.18-0.15c-0.07-0.01-0.21,0.03-0.22,0.07c-0.28,1.42-0.29,2.79,0.38,4.16c0.5,1.01,0.39,1.07,0.66,1.14
			c0.44,0.12,0.61,0.02,0.62-0.39c0.02-1.26,0.23-2.51-0.03-3.69C218.37,87.8,218.04,87.28,217.96,86.75"/>
		<path d="M222.75,86.49c-0.07-0.04-0.15-0.04-0.23-0.07c-0.37-0.16-0.58-0.08-0.61,0.36c-0.04,0.47-0.1,0.94-0.16,1.42
			c0.04,0.39,0.04,0.8,0.15,1.17c0.05,0.19,0.28,0.37,0.47,0.48c0.29,0.16,0.92-0.06,1.03-0.36c0.07-0.17,0.05-0.47-0.06-0.61
			c-0.3-0.38-0.65-0.73-0.52-1.26c0.05-0.19,0.26-0.33,0.4-0.5c0.1,0.09,0.24,0.16,0.28,0.27c0.05,0.14-0.02,0.32,0.03,0.46
			c0.05,0.13,0.2,0.22,0.31,0.32c0.09-0.09,0.24-0.18,0.24-0.27c0.01-0.47,0.12-1.04-0.09-1.39
			C223.74,86.06,223.18,86.7,222.75,86.49"/>
		<path d="M222.38,70.83c0.01,0.05,0.27,0.11,0.36,0.06c0.12-0.07,0.29-0.25,0.27-0.35c-0.21-0.83-0.35-1.63,0.01-2.49
			c0.1-0.23-0.29-0.68-0.5-1.01c-0.05-0.08-0.27-0.05-0.47-0.08c-0.12,0.15-0.41,0.36-0.38,0.51
			C221.87,68.59,222.12,69.71,222.38,70.83"/>
		<path d="M222.46,72.08c-0.09-0.11-0.26-0.14-0.4-0.19c-0.01,0-0.1,0.12-0.11,0.18c-0.03,0.39-0.05,0.78-0.11,1.62
			c0.05,0.39,0.16,1.22,0.28,2.05c0.01,0.05,0.15,0.14,0.19,0.12c0.13-0.06,0.33-0.15,0.34-0.25c0.09-0.54,0.01-1.13,0.21-1.61
			C223.18,73.22,222.92,72.65,222.46,72.08"/>
		<path d="M220.24,68.19c-0.64,0.29-0.93,1.16-0.58,1.69c0,0,0.14-0.06,0.19-0.11c0.15-0.13,0.37-0.49,0.46-0.05
			c0.09,0.43-0.04,0.91-0.06,1.37c-0.01,0.13,0.05,0.26,0.08,0.38c0.16-0.12,0.42-0.22,0.44-0.36c0.08-0.46,0.06-0.94,0.1-1.68
			c-0.02-0.19-0.02-0.66-0.11-1.12C220.71,67.98,220.44,68.1,220.24,68.19"/>
		<path d="M220.75,103.67c-0.02-0.07-0.03-0.16-0.07-0.22c-0.24-0.39,0.28-1.14-0.32-1.22c-0.73-0.1-0.36,0.65-0.47,1.03
			c-0.13,0.45-0.29,0.89-0.35,1.35c-0.04,0.29,0.08,0.61,0.15,0.91c0.01,0.04,0.14,0.08,0.21,0.08c0.07,0,0.14-0.05,0.21-0.08
			C219.74,104.7,220.92,104.42,220.75,103.67"/>
		<path d="M223.42,102.54c-0.14-0.05-0.29-0.09-0.55-0.17c-0.26,0.06-0.66,0.1-0.99,0.25c-0.41,0.19-0.47,0.77-0.14,1.2
			c0.13,0.17,0.32,0.35,0.53,0.06c0.18-0.25,0.33-0.52,0.54-0.75c0.06-0.06,0.27-0.03,0.38,0.02c0.15,0.06,0.18,0.46,0.44,0.22
			C223.8,103.2,223.63,102.62,223.42,102.54"/>
		<path d="M222.37,93.06c0.12-0.01,0.29-0.16,0.32-0.27c0.07-0.3,0.08-0.62,0.13-1.02c-0.06-0.31-0.12-0.69-0.23-1.06
			c-0.03-0.1-0.26-0.2-0.38-0.19s-0.31,0.16-0.33,0.27c-0.14,0.69,0.49,1.34,0.15,2.07C222.02,92.88,222.26,93.08,222.37,93.06"/>
		<path d="M216.43,86.18c0.49-0.33,0.99-0.64,1.43-1.03c0.11-0.09,0-0.43-0.01-0.66c-0.11,0.05-0.21,0.1-0.32,0.14
			c-0.19,0.07-0.37,0.17-0.56,0.18c-0.76,0.05-0.76,0.04-0.76,0.7c0.01,0.15-0.01,0.32,0.03,0.46
			C216.24,86.07,216.41,86.2,216.43,86.18"/>
		<path d="M220.77,84.85c-0.18,0.15-0.3,0.23-0.4,0.33c-0.51,0.51-0.5,0.51-0.15,1.1c0.08,0.13,0.12,0.28,0.18,0.42
			c0.09,0.25,0.09,0.69,0.52,0.36c0.13-0.1,0.15-0.4,0.13-0.61C220.98,85.94,220.87,85.42,220.77,84.85"/>
		<path d="M220.4,79.74c-0.01,0.47,0.03,0.95,0.06,1.42c0,0.07,0.07,0.14,0.11,0.21c0.08-0.09,0.2-0.18,0.21-0.28
			c0.03-0.31,0.01-0.63,0.01-0.95c0.01,0,0.05-0.32,0.03-0.47c-0.04-0.3-0.1-0.61-0.16-0.91C220.23,78.99,220.41,79.4,220.4,79.74"
			/>
		<path d="M222.79,78.75c-0.11-0.27-0.24-0.61-0.4-0.95c-0.02-0.05-0.15-0.11-0.19-0.09c-0.12,0.06-0.29,0.15-0.3,0.24
			c-0.03,0.3-0.05,0.63,0.04,0.91c0.05,0.15,0.32,0.26,0.51,0.33C222.48,79.21,222.61,78.98,222.79,78.75"/>
		<path d="M220.68,90.49c0.04-0.07,0.1-0.13,0.11-0.2c0.03-0.3,0.05-0.61,0.07-0.93c0-0.22,0.02-0.45-0.01-0.67
			c-0.02-0.14-0.11-0.27-0.18-0.41c-0.08,0.13-0.21,0.25-0.22,0.38c-0.03,0.54-0.02,1.07,0,1.61
			C220.46,90.34,220.6,90.41,220.68,90.49"/>
		<path d="M222.08,85.07c0.33,0,0.57-0.14,0.56-0.65c-0.15-0.12-0.36-0.3-0.58-0.48c-0.13,0.33-0.26,0.65-0.37,0.98
			C221.69,84.93,221.94,85.07,222.08,85.07"/>
		<path d="M223.83,94.78c-0.02,0.15-0.01,0.31-0.01,0.47c0,0-0.03,0.47,0,0.7c0.01,0.12,0.12,0.22,0.19,0.33
			c0.03-0.07,0.08-0.14,0.08-0.22c0.01-0.39,0.01-0.78-0.01-1.17c0-0.11-0.1-0.21-0.16-0.32C223.89,94.64,223.83,94.71,223.83,94.78
			"/>
		<path d="M216.51,104.57c0-0.18-0.15-0.37-0.24-0.55c-0.16,0.15-0.35,0.28-0.45,0.46c-0.06,0.11-0.04,0.32,0.03,0.43
			c0.06,0.11,0.24,0.14,0.42,0.24C216.36,104.96,216.51,104.76,216.51,104.57"/>
		<path d="M223.82,84.53c0.01,0.07,0.06,0.14,0.1,0.21c0.06-0.09,0.16-0.17,0.18-0.27c0.03-0.15,0.01-0.32,0.01-0.51
			c-0.03-0.12-0.06-0.27-0.1-0.42c-0.07,0.17-0.17,0.34-0.21,0.52C223.77,84.2,223.8,84.37,223.82,84.53"/>
		<path d="M223.99,69.09c-0.05,0.12-0.12,0.24-0.15,0.36c-0.03,0.15-0.03,0.3-0.04,0.35c0,0.18-0.02,0.27,0.01,0.33
			c0.04,0.1,0.13,0.18,0.19,0.26c0.04-0.07,0.1-0.13,0.1-0.2c0.01-0.22,0.02-0.45,0-0.68C224.09,69.37,224.03,69.23,223.99,69.09"/>
		<path d="M222.54,65.63c0.05-0.18-0.01-0.39-0.03-0.61c-0.22,0.08-0.47,0.12-0.47,0.18c-0.01,0.19,0.07,0.39,0.11,0.58
			C222.28,65.73,222.51,65.71,222.54,65.63"/>
		<path d="M178.81,22.51c0.1-0.04,0.14-0.21,0.21-0.33c-0.05-0.06-0.09-0.12-0.14-0.18c-0.16,0.14-0.32,0.28-0.47,0.42
			C178.55,22.46,178.71,22.55,178.81,22.51"/>
		<path d="M223.45,65.57c0.04,0.11,0.23,0.16,0.35,0.23c0.04-0.13,0.14-0.28,0.1-0.37c-0.06-0.12-0.23-0.18-0.35-0.27
			C223.51,65.31,223.41,65.47,223.45,65.57"/>
		<path d="M220.78,73.83c0-0.13-0.07-0.27-0.1-0.4c-0.07,0.15-0.18,0.29-0.19,0.44c-0.01,0.11,0.11,0.24,0.17,0.36
			C220.7,74.1,220.78,73.97,220.78,73.83"/>
		<path d="M219.79,79.92c0.04-0.14,0.07-0.28,0.1-0.42c-0.02-0.07-0.02-0.15-0.06-0.21c-0.03-0.06-0.1-0.09-0.15-0.14
			c-0.04,0.06-0.13,0.12-0.12,0.18c0.02,0.21,0.06,0.42,0.1,0.63C219.7,79.95,219.78,79.94,219.79,79.92"/>
		<path d="M222.18,81.31c0.05-0.2-0.02-0.43-0.04-0.64c0-0.01-0.09-0.01-0.18-0.02c-0.01,0.22-0.06,0.43-0.03,0.64
			C221.97,81.53,222.13,81.55,222.18,81.31"/>
		<path d="M219.74,81.91c0.04-0.06,0.11-0.13,0.11-0.19c-0.02-0.22-0.07-0.43-0.11-0.65c-0.04,0.03-0.11,0.06-0.12,0.1
			c-0.03,0.14-0.07,0.3-0.05,0.44C219.57,81.72,219.67,81.81,219.74,81.91"/>
		<path d="M222.47,82.7c0.05-0.07-0.05-0.24-0.08-0.37c-0.13,0.06-0.32,0.09-0.37,0.19c-0.05,0.1,0.04,0.27,0.08,0.41
			C222.23,82.86,222.4,82.81,222.47,82.7"/>
		<path d="M125.92,29.14c0.07,0.03,0.2-0.08,0.4-0.16c-0.18-0.15-0.32-0.28-0.48-0.38c-0.01-0.01-0.21,0.19-0.19,0.24
			C125.69,28.96,125.8,29.09,125.92,29.14"/>
		<path d="M31.01,99.1c-0.13,0.06-0.35,0.1-0.37,0.17c-0.09,0.52-0.14,1.04-0.18,1.57c0,0.06,0.24,0.19,0.25,0.18
			c0.42-0.46,0.82-0.93,0.61-1.62C31.29,99.28,31.12,99.2,31.01,99.1"/>
		<path d="M31.3,98.27c-0.05-0.2-0.09-0.33-0.12-0.47c-0.17,0.09-0.35,0.17-0.49,0.29c-0.04,0.04,0.05,0.23,0.09,0.35
			C30.95,98.39,31.13,98.33,31.3,98.27"/>
		<path d="M64.68,29.46c-0.14,0.03-0.26,0.12-0.39,0.18c0.11,0.07,0.22,0.15,0.34,0.21c0.06,0.03,0.15,0.03,0.22,0.03
			c0.07,0.01,0.15,0.02,0.22,0c0.2-0.06,0.4-0.14,0.6-0.21c-0.18-0.09-0.35-0.18-0.46-0.24C64.98,29.44,64.83,29.43,64.68,29.46"/>
	</g>
</g>
</svg>
